<svg xmlns="http://www.w3.org/2000/svg" xmlns:xlink="http://www.w3.org/1999/xlink" viewBox="0,0,256,256" width="48px" height="48px"><defs><linearGradient x1="9.858" y1="9.858" x2="38.142" y2="38.142" gradientUnits="userSpaceOnUse" id="color-1"><stop offset="0" stop-color="#33d7f0"></stop><stop offset="1" stop-color="#0083c4"></stop></linearGradient></defs><g fill-opacity="0" fill="#fffdfd" fill-rule="nonzero" stroke="none" stroke-width="1" stroke-linecap="butt" stroke-linejoin="miter" stroke-miterlimit="10" stroke-dasharray="" stroke-dashoffset="0" font-family="none" font-weight="none" font-size="none" text-anchor="none" style="mix-blend-mode: normal"><path d="M0,256v-256h256v256z" id="bgRectangle"></path></g><g fill="none" fill-rule="nonzero" stroke="none" stroke-width="1" stroke-linecap="butt" stroke-linejoin="miter" stroke-miterlimit="10" stroke-dasharray="" stroke-dashoffset="0" font-family="none" font-weight="none" font-size="none" text-anchor="none" style="mix-blend-mode: normal"><g transform="scale(5.33333,5.33333)"><path d="M44,24c0,11.045 -8.955,20 -20,20c-11.045,0 -20,-8.955 -20,-20c0,-11.045 8.955,-20 20,-20c11.045,0 20,8.955 20,20z" fill="url(#color-1)"></path><path d="M24,28h8c1.105,0 2,-0.895 2,-2v-4c0,-1.105 -0.895,-2 -2,-2h-8v-3.648c0,-1.336 -1.616,-2.006 -2.561,-1.061l-7.295,7.295c-0.781,0.781 -0.781,2.047 0,2.828l7.295,7.295c0.945,0.945 2.561,0.276 2.561,-1.061z" fill="#000000" opacity="0.05"></path><path d="M23.5,27.5h8.5c0.828,0 1.5,-0.672 1.5,-1.5v-4c0,-0.828 -0.672,-1.5 -1.5,-1.5h-8.5v-4.021c0,-0.938 -1.134,-1.408 -1.798,-0.745l-7.13,7.129c-0.627,0.627 -0.627,1.644 0,2.271l7.13,7.129c0.663,0.663 1.798,0.194 1.798,-0.745z" fill="#000000" opacity="0.07"></path><path d="M23,31.393v-4.393h9c0.552,0 1,-0.448 1,-1v-4c0,-0.552 -0.448,-1 -1,-1h-9v-4.393c0,-0.54 -0.653,-0.81 -1.034,-0.428l-6.964,6.964c-0.473,0.473 -0.473,1.241 0,1.714l6.964,6.964c0.381,0.382 1.034,0.112 1.034,-0.428z" fill="#ffffff"></path></g></g><g fill="#0a0a0a" fill-rule="nonzero" stroke="none" stroke-width="1" stroke-linecap="butt" stroke-linejoin="miter" stroke-miterlimit="10" stroke-dasharray="" stroke-dashoffset="0" font-family="none" font-weight="none" font-size="none" text-anchor="none" style="mix-blend-mode: normal"><g><path d="M48.27667,191.75667h-3.17l0.19,-1.01c0.38667,-0.19333 0.78667,-0.36333 1.2,-0.51c0.40667,-0.14 0.79667,-0.22667 1.17,-0.26v0l3.2,-15.1c-0.35333,-0.06667 -0.71,-0.16667 -1.07,-0.3c-0.35333,-0.13333 -0.67333,-0.29 -0.96,-0.47v0l0.22,-1.01h4.24c0.67333,0 1.32667,-0.02667 1.96,-0.08c0.62667,-0.05333 1.33333,-0.08 2.12,-0.08v0c0.85333,0 1.63333,0.06667 2.34,0.2c0.71333,0.13333 1.32333,0.33667 1.83,0.61c0.50667,0.27333 0.90333,0.63667 1.19,1.09c0.28,0.45333 0.42,1 0.42,1.64v0c0,0.74667 -0.12667,1.41333 -0.38,2c-0.26,0.58667 -0.61667,1.10333 -1.07,1.55c-0.45333,0.44667 -0.99,0.81 -1.61,1.09c-0.62667,0.28667 -1.30333,0.5 -2.03,0.64v0v0.11c0.48,0.03333 0.96,0.12333 1.44,0.27c0.48,0.14 0.91,0.35333 1.29,0.64c0.38667,0.28 0.7,0.64 0.94,1.08c0.24,0.43333 0.36,0.95333 0.36,1.56v0c0,0.96 -0.19333,1.83333 -0.58,2.62c-0.38,0.79333 -0.94333,1.48 -1.69,2.06c-0.74667,0.57333 -1.68,1.02 -2.8,1.34c-1.12,0.32 -2.41667,0.48 -3.89,0.48v0c-0.37333,0 -0.78,-0.00667 -1.22,-0.02c-0.43333,-0.02 -0.87333,-0.04 -1.32,-0.06c-0.44,-0.01333 -0.86667,-0.03 -1.28,-0.05c-0.40667,-0.02 -0.75333,-0.03 -1.04,-0.03zM53.47667,190.18667v0c0.66,0 1.26667,-0.11667 1.82,-0.35c0.54667,-0.22667 1.01667,-0.55 1.41,-0.97c0.39333,-0.42 0.7,-0.91 0.92,-1.47c0.22,-0.56 0.33,-1.16667 0.33,-1.82v0c0,-0.98 -0.31333,-1.63 -0.94,-1.95c-0.63333,-0.32 -1.52,-0.48 -2.66,-0.48v0h-1.41l-1.44,6.85c0.23333,0.05333 0.48333,0.1 0.75,0.14c0.26667,0.03333 0.67333,0.05 1.22,0.05zM53.31667,181.41667h0.86c0.3,0 0.60667,-0.01333 0.92,-0.04c0.30667,-0.02667 0.59333,-0.06 0.86,-0.1v0c1.06667,-0.40667 1.86667,-0.99333 2.4,-1.76c0.53333,-0.76 0.8,-1.64667 0.8,-2.66v0c0,-0.69333 -0.20333,-1.23333 -0.61,-1.62c-0.40667,-0.38 -1.07333,-0.57 -2,-0.57v0c-0.37333,0 -0.70667,0.01 -1,0.03c-0.29333,0.01333 -0.56333,0.04 -0.81,0.08v0zM68.65667,189.91667v0c0.33333,0 0.68333,-0.15 1.05,-0.45c0.36667,-0.3 0.71333,-0.67667 1.04,-1.13c0.32667,-0.45333 0.63,-0.95333 0.91,-1.5c0.27333,-0.54 0.50667,-1.04 0.7,-1.5v0l0.99,-5.28c-0.21333,-0.14667 -0.41333,-0.25 -0.6,-0.31c-0.18667,-0.06 -0.43,-0.09 -0.73,-0.09v0c-0.71333,0 -1.35333,0.23333 -1.92,0.7c-0.57333,0.47333 -1.05333,1.08667 -1.44,1.84c-0.39333,0.76 -0.69333,1.61 -0.9,2.55c-0.2,0.94 -0.3,1.88333 -0.3,2.83v0c0,0.81333 0.09667,1.40667 0.29,1.78c0.19333,0.37333 0.49667,0.56 0.91,0.56zM72.06667,187.49667h-0.11c-0.22667,0.56667 -0.51333,1.12 -0.86,1.66c-0.34667,0.54667 -0.74333,1.03333 -1.19,1.46c-0.44667,0.42667 -0.93667,0.77333 -1.47,1.04c-0.53333,0.26667 -1.11,0.4 -1.73,0.4v0c-0.92667,0 -1.66333,-0.34 -2.21,-1.02c-0.55333,-0.67333 -0.83,-1.67667 -0.83,-3.01v0c0,-1.38667 0.19,-2.68 0.57,-3.88c0.38667,-1.2 0.93,-2.25 1.63,-3.15c0.7,-0.89333 1.55,-1.59333 2.55,-2.1c0.99333,-0.50667 2.10333,-0.76 3.33,-0.76v0c0.46,0 0.85667,0.05333 1.19,0.16c0.32667,0.10667 0.67667,0.24 1.05,0.4v0c0.46,-0.18 0.95667,-0.31333 1.49,-0.4c0.53333,-0.09333 1.17333,-0.14 1.92,-0.14v0l-2.24,11.74h1.87v0.9c-0.18,0.14667 -0.41667,0.29 -0.71,0.43c-0.29333,0.14 -0.61333,0.26333 -0.96,0.37c-0.34667,0.10667 -0.7,0.19667 -1.06,0.27c-0.36667,0.07333 -0.71,0.11 -1.03,0.11v0c-0.62,0 -1.06333,-0.13333 -1.33,-0.4c-0.26667,-0.26667 -0.4,-0.54333 -0.4,-0.83v0c0,-0.32 0.04333,-0.74333 0.13,-1.27c0.08667,-0.52 0.22,-1.18 0.4,-1.98zM88.30667,188.15667l0.61,0.67c-0.22667,0.37333 -0.52667,0.75667 -0.9,1.15c-0.37333,0.38667 -0.80667,0.73333 -1.3,1.04c-0.48667,0.3 -1.02333,0.54667 -1.61,0.74c-0.58667,0.2 -1.21,0.3 -1.87,0.3v0c-1.4,0 -2.51333,-0.42 -3.34,-1.26c-0.82667,-0.83333 -1.24,-1.99667 -1.24,-3.49v0c0,-1.24667 0.19,-2.43 0.57,-3.55c0.38,-1.12 0.91667,-2.1 1.61,-2.94c0.69333,-0.84667 1.53333,-1.51333 2.52,-2c0.98667,-0.49333 2.08667,-0.74 3.3,-0.74v0c0.8,0 1.49667,0.08667 2.09,0.26c0.59333,0.16667 0.99,0.36667 1.19,0.6v0c0.01333,0.19333 -0.02,0.43667 -0.1,0.73c-0.08,0.29333 -0.2,0.58667 -0.36,0.88c-0.16,0.29333 -0.35,0.57 -0.57,0.83c-0.22,0.25333 -0.44667,0.43333 -0.68,0.54v0l-1.63,-2.32c-0.48,0 -0.96333,0.16667 -1.45,0.5c-0.48667,0.32667 -0.92667,0.79667 -1.32,1.41c-0.39333,0.61333 -0.71333,1.35 -0.96,2.21c-0.24667,0.86667 -0.37,1.84 -0.37,2.92v0c0,1.08667 0.22,1.88333 0.66,2.39c0.44667,0.50667 1.04333,0.76 1.79,0.76v0c0.35333,0 0.69667,-0.05667 1.03,-0.17c0.32667,-0.12 0.63333,-0.26 0.92,-0.42c0.28,-0.16 0.54,-0.33333 0.78,-0.52c0.24,-0.18667 0.45,-0.36 0.63,-0.52zM98.19667,190.53667v0c-0.49333,-0.85333 -0.88667,-1.7 -1.18,-2.54c-0.29333,-0.83333 -0.57333,-1.62333 -0.84,-2.37v0l-0.88,-0.27l-1.2,6.38h-3.74l3.55,-17.84l-1.79,-0.35v-0.91c0.25333,-0.10667 0.58333,-0.21667 0.99,-0.33c0.40667,-0.11333 0.85,-0.21667 1.33,-0.31c0.48,-0.08667 0.98333,-0.16 1.51,-0.22c0.52667,-0.06667 1.03667,-0.1 1.53,-0.1v0l0.56,0.3l-2.48,12.21h0.86c0.3,-0.23333 0.61,-0.51 0.93,-0.83c0.32,-0.32 0.62333,-0.64 0.91,-0.96c0.28,-0.32 0.53333,-0.63333 0.76,-0.94c0.22,-0.31333 0.39333,-0.57667 0.52,-0.79v0c0.01333,-0.12667 0.02667,-0.29667 0.04,-0.51c0.00667,-0.21333 0.00667,-0.43 0,-0.65c-0.01333,-0.22 -0.02333,-0.43333 -0.03,-0.64c-0.00667,-0.20667 -0.02,-0.36333 -0.04,-0.47v0c0.3,-0.10667 0.68333,-0.19 1.15,-0.25c0.46,-0.06 0.93,-0.09 1.41,-0.09v0c0.48,0 0.93,0.03 1.35,0.09c0.41333,0.06 0.72,0.14333 0.92,0.25v0c-0.23333,0.58667 -0.57667,1.16667 -1.03,1.74c-0.45333,0.56667 -0.94333,1.1 -1.47,1.6c-0.52,0.49333 -1.03333,0.94 -1.54,1.34c-0.50667,0.4 -0.92,0.71667 -1.24,0.95v0c0.12,0.34 0.31,0.76667 0.57,1.28c0.26,0.51333 0.55,1.05 0.87,1.61c0.32,0.56 0.65667,1.10333 1.01,1.63c0.35333,0.52667 0.68333,0.97667 0.99,1.35v0h1.44v0.9c-0.18,0.14667 -0.40667,0.29 -0.68,0.43c-0.28,0.14 -0.58,0.26333 -0.9,0.37c-0.32,0.10667 -0.64667,0.19667 -0.98,0.27c-0.34,0.07333 -0.67,0.11 -0.99,0.11v0c-0.42667,0 -0.82333,-0.1 -1.19,-0.3c-0.36,-0.19333 -0.69333,-0.57333 -1,-1.14zM112.57667,180.07667v-1.04c0.33333,-0.21333 0.70667,-0.39333 1.12,-0.54c0.40667,-0.15333 0.80667,-0.27333 1.2,-0.36v0l0.42,-2.03c0.12667,-0.10667 0.32333,-0.21 0.59,-0.31c0.26667,-0.09333 0.56,-0.18 0.88,-0.26c0.32,-0.08 0.64333,-0.15667 0.97,-0.23c0.33333,-0.07333 0.63333,-0.12667 0.9,-0.16v0l0.56,0.32l-0.64,2.93h3.12c0.03333,0.21333 0.02,0.49333 -0.04,0.84c-0.06667,0.34667 -0.17,0.62667 -0.31,0.84v0h-3.12l-1.55,6.91c-0.06667,0.34 -0.12,0.63667 -0.16,0.89c-0.03333,0.26 -0.05,0.49667 -0.05,0.71v0c0,0.46 0.11667,0.79667 0.35,1.01c0.22667,0.21333 0.53667,0.32 0.93,0.32v0c0.44667,0 0.86333,-0.05333 1.25,-0.16c0.39333,-0.10667 0.76667,-0.25667 1.12,-0.45v0l0.35,0.69c-0.21333,0.23333 -0.49667,0.47 -0.85,0.71c-0.36,0.24 -0.76,0.46333 -1.2,0.67c-0.44667,0.2 -0.92667,0.36333 -1.44,0.49c-0.52,0.12667 -1.04667,0.19 -1.58,0.19v0c-0.92,0 -1.61333,-0.21333 -2.08,-0.64c-0.46,-0.42667 -0.69,-1.01333 -0.69,-1.76v0c0,-0.41333 0.03667,-0.85 0.11,-1.31c0.06667,-0.46 0.13667,-0.85 0.21,-1.17v0l1.55,-7.1zM121.93667,186.61667v0c0,-0.96 0.16,-1.94333 0.48,-2.95c0.32,-1.00667 0.80667,-1.92333 1.46,-2.75c0.66,-0.82667 1.49333,-1.50667 2.5,-2.04c1,-0.53333 2.17667,-0.8 3.53,-0.8v0c1.6,0 2.85333,0.43667 3.76,1.31c0.90667,0.87333 1.36,2.17 1.36,3.89v0c0,1.17333 -0.17667,2.29 -0.53,3.35c-0.36,1.06 -0.87667,1.99333 -1.55,2.8c-0.67333,0.80667 -1.49667,1.44667 -2.47,1.92c-0.96667,0.47333 -2.07333,0.71 -3.32,0.71v0c-0.74667,0 -1.44,-0.11333 -2.08,-0.34c-0.64,-0.22 -1.19333,-0.55667 -1.66,-1.01c-0.47333,-0.45333 -0.84,-1.01667 -1.1,-1.69c-0.25333,-0.68 -0.38,-1.48 -0.38,-2.4zM129.45667,179.59667v0c-0.71333,0 -1.30667,0.26667 -1.78,0.8c-0.46667,0.53333 -0.84667,1.20667 -1.14,2.02c-0.29333,0.80667 -0.50333,1.68 -0.63,2.62c-0.12667,0.94667 -0.19,1.82 -0.19,2.62v0c0,0.90667 0.17333,1.61333 0.52,2.12c0.34667,0.50667 0.82333,0.76 1.43,0.76v0c0.51333,0 0.99,-0.22 1.43,-0.66c0.43333,-0.43333 0.81,-1.02 1.13,-1.76c0.32,-0.73333 0.57,-1.57667 0.75,-2.53c0.17333,-0.95333 0.26,-1.94333 0.26,-2.97v0c0,-0.98 -0.15333,-1.72667 -0.46,-2.24c-0.31333,-0.52 -0.75333,-0.78 -1.32,-0.78zM150.62667,190.71667l-0.19,1.02h-8.08l0.19,-1.02c0.35333,-0.17333 0.74,-0.32667 1.16,-0.46c0.42,-0.13333 0.82333,-0.23667 1.21,-0.31v0l3.2,-15.09c-0.40667,-0.07333 -0.78667,-0.18 -1.14,-0.32c-0.36,-0.14667 -0.65333,-0.3 -0.88,-0.46v0l0.21,-1.01h8.08l-0.21,1.01c-0.26667,0.2 -0.58667,0.36 -0.96,0.48c-0.37333,0.12667 -0.74,0.22667 -1.1,0.3v0l-1.38,6.45h7.06l1.39,-6.45c-0.76667,-0.2 -1.34333,-0.46 -1.73,-0.78v0l0.21,-1.01h8.08l-0.21,1.01c-0.34,0.2 -0.72,0.36667 -1.14,0.5c-0.41333,0.13333 -0.81667,0.22667 -1.21,0.28v0l-3.2,15.09c0.39333,0.07333 0.76333,0.18 1.11,0.32c0.34667,0.14 0.64333,0.29 0.89,0.45v0l-0.19,1.02h-8.08l0.19,-1.02c0.3,-0.16 0.63,-0.31 0.99,-0.45c0.35333,-0.14 0.71667,-0.24667 1.09,-0.32v0l1.44,-6.91h-7.07l-1.44,6.91c0.60667,0.12667 1.17667,0.38333 1.71,0.77zM164.19667,186.61667v0c0,-0.96 0.16,-1.94333 0.48,-2.95c0.32,-1.00667 0.81,-1.92333 1.47,-2.75c0.66,-0.82667 1.49,-1.50667 2.49,-2.04c1.00667,-0.53333 2.18667,-0.8 3.54,-0.8v0c1.6,0 2.85333,0.43667 3.76,1.31c0.90667,0.87333 1.36,2.17 1.36,3.89v0c0,1.17333 -0.18,2.29 -0.54,3.35c-0.35333,1.06 -0.86667,1.99333 -1.54,2.8c-0.68,0.80667 -1.50333,1.44667 -2.47,1.92c-0.96667,0.47333 -2.07333,0.71 -3.32,0.71v0c-0.74667,0 -1.44,-0.11333 -2.08,-0.34c-0.64,-0.22 -1.19667,-0.55667 -1.67,-1.01c-0.46667,-0.45333 -0.83,-1.01667 -1.09,-1.69c-0.26,-0.68 -0.39,-1.48 -0.39,-2.4zM171.71667,179.59667v0c-0.70667,0 -1.29667,0.26667 -1.77,0.8c-0.47333,0.53333 -0.85667,1.20667 -1.15,2.02c-0.29333,0.80667 -0.5,1.68 -0.62,2.62c-0.12667,0.94667 -0.19,1.82 -0.19,2.62v0c0,0.90667 0.17333,1.61333 0.52,2.12c0.34667,0.50667 0.82333,0.76 1.43,0.76v0c0.51333,0 0.98667,-0.22 1.42,-0.66c0.44,-0.43333 0.82,-1.02 1.14,-1.76c0.32,-0.73333 0.56667,-1.57667 0.74,-2.53c0.18,-0.95333 0.27,-1.94333 0.27,-2.97v0c0,-0.98 -0.15667,-1.72667 -0.47,-2.24c-0.30667,-0.52 -0.74667,-0.78 -1.32,-0.78zM194.11667,188.58667l1.15,-4.85c0.08667,-0.41333 0.18333,-0.85333 0.29,-1.32c0.10667,-0.47333 0.16,-0.84333 0.16,-1.11v0c0,-0.34 -0.05667,-0.60667 -0.17,-0.8c-0.11333,-0.19333 -0.32333,-0.29 -0.63,-0.29v0c-0.3,0 -0.61,0.11 -0.93,0.33c-0.32,0.22 -0.63,0.51333 -0.93,0.88c-0.30667,0.36667 -0.59667,0.78 -0.87,1.24c-0.27333,0.46 -0.51667,0.93 -0.73,1.41v0l-1.74,7.66h-3.57l1.63,-7.5c0.12,-0.54667 0.22667,-1.08 0.32,-1.6c0.08667,-0.51333 0.13,-0.99333 0.13,-1.44v0c0,-0.65333 -0.25,-0.98 -0.75,-0.98v0c-0.24667,0 -0.53,0.11333 -0.85,0.34c-0.32,0.23333 -0.64,0.53333 -0.96,0.9c-0.32,0.36 -0.62333,0.77333 -0.91,1.24c-0.28,0.46 -0.5,0.93 -0.66,1.41v0l-1.55,7.63h-3.73l2.37,-11.44l-1.52,-0.35v-0.91c0.28667,-0.14 0.63667,-0.27333 1.05,-0.4c0.42,-0.12 0.86,-0.22 1.32,-0.3c0.46667,-0.08 0.94,-0.14333 1.42,-0.19c0.48,-0.04667 0.92333,-0.07 1.33,-0.07v0l0.56,0.32l-1.04,3.9h0.11c0.26667,-0.48 0.59,-0.97333 0.97,-1.48c0.38,-0.50667 0.81,-0.96 1.29,-1.36c0.48,-0.4 0.99667,-0.73 1.55,-0.99c0.55333,-0.26 1.11333,-0.39 1.68,-0.39v0c0.21333,0 0.43667,0.03667 0.67,0.11c0.22667,0.07333 0.44333,0.20333 0.65,0.39c0.20667,0.18667 0.37,0.44 0.49,0.76c0.12667,0.32 0.19,0.72667 0.19,1.22v0c0,0.25333 -0.02333,0.54 -0.07,0.86c-0.04,0.32 -0.09667,0.61333 -0.17,0.88v0c0.3,-0.55333 0.65667,-1.08667 1.07,-1.6c0.40667,-0.52 0.84667,-0.97 1.32,-1.35c0.46667,-0.38 0.96333,-0.68667 1.49,-0.92c0.52667,-0.23333 1.07333,-0.35 1.64,-0.35v0c0.67333,0 1.22333,0.21333 1.65,0.64c0.42667,0.42667 0.64,1.01333 0.64,1.76v0c0,0.57333 -0.05333,1.11667 -0.16,1.63c-0.10667,0.51333 -0.22,1.05667 -0.34,1.63v0l-1.52,6.16h1.86v0.9c-0.17333,0.14667 -0.41667,0.29 -0.73,0.43c-0.31333,0.14 -0.64667,0.26333 -1,0.37c-0.35333,0.10667 -0.71667,0.19667 -1.09,0.27c-0.37333,0.07333 -0.72,0.11 -1.04,0.11v0c-0.64,0 -1.08667,-0.13 -1.34,-0.39c-0.24667,-0.26 -0.37,-0.55 -0.37,-0.87v0c0,-0.51333 0.12333,-1.22333 0.37,-2.13zM211.50667,188.15667l0.64,0.67c-0.19333,0.35333 -0.47667,0.72333 -0.85,1.11c-0.37333,0.38 -0.81,0.72667 -1.31,1.04c-0.5,0.30667 -1.05,0.56333 -1.65,0.77c-0.60667,0.20667 -1.24,0.31 -1.9,0.31v0c-1.58,0 -2.81,-0.43333 -3.69,-1.3c-0.88,-0.86 -1.32,-2.08 -1.32,-3.66v0c0,-1.22667 0.19667,-2.38333 0.59,-3.47c0.38667,-1.08667 0.93333,-2.04333 1.64,-2.87c0.7,-0.82667 1.53333,-1.48 2.5,-1.96c0.97333,-0.48 2.03667,-0.72 3.19,-0.72v0c1.06667,0 1.94667,0.24667 2.64,0.74c0.69333,0.48667 1.04,1.15667 1.04,2.01v0c0,1.20667 -0.6,2.20333 -1.8,2.99c-1.2,0.78 -3.14333,1.26667 -5.83,1.46v0c-0.05333,0.25333 -0.09333,0.50667 -0.12,0.76c-0.02667,0.26 -0.04,0.50667 -0.04,0.74v0c0,1.01333 0.26,1.79 0.78,2.33c0.51333,0.54 1.17,0.81 1.97,0.81v0c0.34,0 0.67667,-0.05333 1.01,-0.16c0.34,-0.10667 0.66667,-0.24667 0.98,-0.42c0.30667,-0.18 0.59,-0.37333 0.85,-0.58c0.26,-0.2 0.48667,-0.4 0.68,-0.6zM208.73667,179.59667v0c-0.60667,0 -1.19,0.33 -1.75,0.99c-0.56,0.66 -1.02667,1.77 -1.4,3.33v0c1.31333,-0.03333 2.37667,-0.32667 3.19,-0.88c0.80667,-0.54667 1.21,-1.26667 1.21,-2.16v0c0,-0.35333 -0.09333,-0.65333 -0.28,-0.9c-0.18667,-0.25333 -0.51,-0.38 -0.97,-0.38z"></path></g></g></svg>