<svg xmlns="http://www.w3.org/2000/svg" xmlns:xlink="http://www.w3.org/1999/xlink" viewBox="0,0,256,256" width="50px" height="50px"><g fill="none" fill-rule="nonzero" stroke="none" stroke-width="1" stroke-linecap="butt" stroke-linejoin="miter" stroke-miterlimit="10" stroke-dasharray="" stroke-dashoffset="0" font-family="none" font-weight="none" font-size="none" text-anchor="none" style="mix-blend-mode: normal"><g transform="scale(5.12,5.12)"><path d="M47,9.99v4.62l-18,25.4l-9,-9.814l-17,-5.196v-4.62z" fill="#626b6e"></path><path d="M47,9.989v4.619l-18,25.403v-4.619z" fill="#17181e"></path><path d="M20,25.577v4.619l9,9.815v-4.619z" fill="#424650"></path><path d="M20,25.577v4.619l-17,-5.196v-4.619z" fill="#1f2526"></path><path d="M20,25.577l27,-15.588l-18,25.403z" fill="#26282f"></path></g></g><g fill="#fffc10" fill-rule="nonzero" stroke="none" stroke-width="1" stroke-linecap="butt" stroke-linejoin="miter" stroke-miterlimit="10" stroke-dasharray="" stroke-dashoffset="0" font-family="none" font-weight="none" font-size="none" text-anchor="none" style="mix-blend-mode: normal"><g><path d="M75.006,130.353l-0.36,1.95h-15.51l0.36,-1.95c0.68,-0.34 1.42333,-0.63667 2.23,-0.89c0.8,-0.26 1.57667,-0.45667 2.33,-0.59v0l6.14,-28.98c-0.78667,-0.13333 -1.52,-0.33667 -2.2,-0.61c-0.68667,-0.27333 -1.25,-0.56333 -1.69,-0.87v0l0.41,-1.95h15.51l-0.41,1.95c-0.51333,0.37333 -1.12667,0.68 -1.84,0.92c-0.72,0.24 -1.42,0.42667 -2.1,0.56v0l-2.66,12.39h13.57l2.66,-12.39c-1.46667,-0.37333 -2.57667,-0.86667 -3.33,-1.48v0l0.41,-1.95h15.51l-0.41,1.95c-0.64667,0.37333 -1.37,0.68667 -2.17,0.94c-0.80667,0.26 -1.58333,0.44 -2.33,0.54v0l-6.15,28.98c0.75333,0.13333 1.46333,0.33667 2.13,0.61c0.66667,0.27333 1.23667,0.56333 1.71,0.87v0l-0.35,1.95h-15.52l0.36,-1.95c0.58,-0.30667 1.21333,-0.59667 1.9,-0.87c0.68,-0.27333 1.37667,-0.47667 2.09,-0.61v0l2.77,-13.26h-13.57l-2.76,13.26c1.16,0.24 2.25,0.73333 3.27,1.48zM101.066,122.473v0c0,-1.84667 0.31,-3.73333 0.93,-5.66c0.61333,-1.92667 1.55,-3.68333 2.81,-5.27c1.26667,-1.58667 2.86333,-2.89333 4.79,-3.92c1.92667,-1.02 4.18667,-1.53 6.78,-1.53v0c3.07333,0 5.48,0.83333 7.22,2.5c1.74,1.67333 2.61,4.16667 2.61,7.48v0c0,2.25333 -0.34,4.39667 -1.02,6.43c-0.68,2.02667 -1.67,3.81667 -2.97,5.37c-1.3,1.55333 -2.88,2.78333 -4.74,3.69c-1.86,0.9 -3.98333,1.35 -6.37,1.35v0c-1.43333,0 -2.76333,-0.21333 -3.99,-0.64c-1.23333,-0.42667 -2.3,-1.07333 -3.2,-1.94c-0.90667,-0.87333 -1.60667,-1.95667 -2.1,-3.25c-0.5,-1.3 -0.75,-2.83667 -0.75,-4.61zM115.506,109.003v0c-1.36667,0 -2.5,0.51333 -3.4,1.54c-0.90667,1.02667 -1.64,2.31667 -2.2,3.87c-0.56667,1.55333 -0.97,3.23333 -1.21,5.04c-0.24,1.80667 -0.36,3.48 -0.36,5.02v0c0,1.74 0.33333,3.09667 1,4.07c0.66667,0.97333 1.58,1.46 2.74,1.46v0c0.99333,0 1.90667,-0.42 2.74,-1.26c0.84,-0.83333 1.56667,-1.96 2.18,-3.38c0.61333,-1.41333 1.09,-3.03333 1.43,-4.86c0.34,-1.82667 0.51,-3.73 0.51,-5.71v0c0,-1.88 -0.29667,-3.31333 -0.89,-4.3c-0.6,-0.99333 -1.44667,-1.49 -2.54,-1.49zM158.516,126.263l2.2,-9.32c0.17333,-0.78667 0.36333,-1.63 0.57,-2.53c0.2,-0.90667 0.3,-1.61667 0.3,-2.13v0c0,-0.64667 -0.11,-1.16 -0.33,-1.54c-0.22,-0.37333 -0.62,-0.56 -1.2,-0.56v0c-0.58,0 -1.18,0.21333 -1.8,0.64c-0.61333,0.42667 -1.21,0.99 -1.79,1.69c-0.58,0.7 -1.13333,1.49333 -1.66,2.38c-0.53333,0.88667 -1.00333,1.79333 -1.41,2.72v0l-3.33,14.69h-6.86l3.12,-14.39c0.24,-1.05333 0.44667,-2.07667 0.62,-3.07c0.17333,-0.98667 0.26,-1.90667 0.26,-2.76v0c0,-1.26667 -0.48,-1.9 -1.44,-1.9v0c-0.48,0 -1.02667,0.22333 -1.64,0.67c-0.61333,0.44 -1.22667,1.01 -1.84,1.71c-0.61333,0.7 -1.19333,1.49333 -1.74,2.38c-0.54667,0.88667 -0.97333,1.79333 -1.28,2.72v0l-2.97,14.64h-7.17l4.56,-21.96l-2.92,-0.67v-1.74c0.54667,-0.27333 1.22,-0.53 2.02,-0.77c0.80667,-0.24 1.65333,-0.43667 2.54,-0.59c0.88667,-0.15333 1.79,-0.27333 2.71,-0.36c0.92,-0.08 1.77333,-0.12 2.56,-0.12v0l1.08,0.61l-2,7.48h0.2c0.51333,-0.92667 1.13667,-1.87667 1.87,-2.85c0.73333,-0.97333 1.56333,-1.84333 2.49,-2.61c0.92,-0.76667 1.91,-1.39667 2.97,-1.89c1.05333,-0.49333 2.12667,-0.74 3.22,-0.74v0c0.41333,0 0.84,0.06667 1.28,0.2c0.44667,0.14 0.86667,0.38667 1.26,0.74c0.38667,0.36 0.7,0.84667 0.94,1.46c0.24,0.61333 0.36,1.4 0.36,2.36v0c0,0.47333 -0.04333,1.02 -0.13,1.64c-0.08667,0.61333 -0.19667,1.17667 -0.33,1.69v0c0.58,-1.06 1.26333,-2.08667 2.05,-3.08c0.78667,-0.98667 1.63,-1.84667 2.53,-2.58c0.90667,-0.73333 1.86333,-1.32333 2.87,-1.77c1.00667,-0.44 2.05667,-0.66 3.15,-0.66v0c1.29333,0 2.35,0.40667 3.17,1.22c0.82,0.82 1.23,1.94667 1.23,3.38v0c0,1.09333 -0.10333,2.13667 -0.31,3.13c-0.2,0.98667 -0.42,2.02667 -0.66,3.12v0l-2.92,11.83h3.58v1.74c-0.34,0.27333 -0.80667,0.54667 -1.4,0.82c-0.6,0.27333 -1.24,0.51 -1.92,0.71c-0.68667,0.20667 -1.38667,0.38 -2.1,0.52c-0.72,0.13333 -1.38667,0.2 -2,0.2v0c-1.22667,0 -2.08,-0.24667 -2.56,-0.74c-0.48,-0.49333 -0.72,-1.05 -0.72,-1.67v0c0,-0.98667 0.24,-2.35 0.72,-4.09zM191.896,125.443l1.23,1.28c-0.37333,0.68 -0.92,1.38667 -1.64,2.12c-0.71333,0.73333 -1.55,1.4 -2.51,2c-0.95333,0.6 -2.01,1.09667 -3.17,1.49c-1.16,0.38667 -2.37333,0.58 -3.64,0.58v0c-3.03333,0 -5.39667,-0.82667 -7.09,-2.48c-1.68667,-1.65333 -2.53,-4 -2.53,-7.04v0c0,-2.35333 0.37667,-4.57 1.13,-6.65c0.74667,-2.08667 1.79333,-3.92333 3.14,-5.51c1.35333,-1.58667 2.96,-2.84 4.82,-3.76c1.86,-0.92 3.9,-1.38 6.12,-1.38v0c2.04667,0 3.73333,0.46667 5.06,1.4c1.33333,0.94 2,2.23 2,3.87v0c0,2.32 -1.15,4.23 -3.45,5.73c-2.30667,1.50667 -6.03667,2.44667 -11.19,2.82v0c-0.10667,0.48 -0.18333,0.96667 -0.23,1.46c-0.05333,0.49333 -0.08,0.96333 -0.08,1.41v0c0,1.94667 0.49667,3.44 1.49,4.48c0.98667,1.04 2.24667,1.56 3.78,1.56v0c0.65333,0 1.30333,-0.10333 1.95,-0.31c0.64667,-0.20667 1.27,-0.48 1.87,-0.82c0.59333,-0.34 1.14,-0.70667 1.64,-1.1c0.49333,-0.39333 0.92667,-0.77667 1.3,-1.15zM186.576,109.003v0c-1.16,0 -2.28,0.63333 -3.36,1.9c-1.07333,1.26 -1.96667,3.39333 -2.68,6.4v0c2.52667,-0.06667 4.56333,-0.63 6.11,-1.69c1.55333,-1.06 2.33,-2.44333 2.33,-4.15v0c0,-0.68 -0.17667,-1.26 -0.53,-1.74c-0.36,-0.48 -0.98333,-0.72 -1.87,-0.72z"></path></g></g></svg>