<svg xmlns="http://www.w3.org/2000/svg" xmlns:xlink="http://www.w3.org/1999/xlink" viewBox="0,0,256,256" width="100px" height="100px"><g fill="none" fill-rule="nonzero" stroke="none" stroke-width="1" stroke-linecap="butt" stroke-linejoin="miter" stroke-miterlimit="10" stroke-dasharray="" stroke-dashoffset="0" font-family="none" font-weight="none" font-size="none" text-anchor="none" style="mix-blend-mode: normal"><g transform="scale(5.12,5.12)"><path d="M47,9.99v4.62l-18,25.4l-9,-9.814l-17,-5.196v-4.62z" fill="#5e696c"></path><path d="M47,9.989v4.619l-18,25.403v-4.619z" fill="#03060e"></path><path d="M20,25.577v4.619l9,9.815v-4.619z" fill="#47494e"></path><path d="M20,25.577v4.619l-17,-5.196v-4.619z" fill="#3f4344"></path><path d="M20,25.577l27,-15.588l-18,25.403z" fill="#2d2f36"></path></g></g><g fill="#fffc10" fill-rule="nonzero" stroke="none" stroke-width="1" stroke-linecap="butt" stroke-linejoin="miter" stroke-miterlimit="10" stroke-dasharray="" stroke-dashoffset="0" font-family="none" font-weight="none" font-size="none" text-anchor="none" style="mix-blend-mode: normal"><g><path d="M75.612,111.679l-1.45,6.88c-0.50667,0.26667 -1.08333,0.50667 -1.73,0.72c-0.64667,0.21333 -1.30333,0.39333 -1.97,0.54c-0.66667,0.14 -1.30667,0.25333 -1.92,0.34c-0.61333,0.08 -1.14667,0.12 -1.6,0.12v0c-1.38667,0 -2.66667,-0.17333 -3.84,-0.52c-1.16667,-0.35333 -2.17,-0.88667 -3.01,-1.6c-0.84,-0.72 -1.49,-1.62 -1.95,-2.7c-0.46,-1.08667 -0.69,-2.36667 -0.69,-3.84v0c0,-2.03333 0.30333,-3.87667 0.91,-5.53c0.6,-1.66 1.47,-3.09 2.61,-4.29c1.13333,-1.2 2.53,-2.12667 4.19,-2.78c1.66,-0.65333 3.53333,-0.98 5.62,-0.98v0c0.68,0 1.35333,0.02333 2.02,0.07c0.66667,0.05333 1.3,0.12667 1.9,0.22c0.60667,0.09333 1.15667,0.20667 1.65,0.34c0.48667,0.13333 0.88333,0.28 1.19,0.44v0c-0.06,0.30667 -0.16,0.70333 -0.3,1.19c-0.14667,0.48 -0.31333,0.99667 -0.5,1.55c-0.18,0.55333 -0.37333,1.10667 -0.58,1.66c-0.20667,0.54667 -0.41,1.04667 -0.61,1.5v0h-1.26l-0.71,-4.67c-0.28667,-0.1 -0.69,-0.17667 -1.21,-0.23c-0.52667,-0.05333 -1.01333,-0.08 -1.46,-0.08v0c-1.37333,0 -2.57667,0.33333 -3.61,1c-1.03333,0.66667 -1.89333,1.56333 -2.58,2.69c-0.68667,1.12667 -1.2,2.42667 -1.54,3.9c-0.34,1.47333 -0.51,3.02 -0.51,4.64v0c0,1.06667 0.12333,1.97667 0.37,2.73c0.24667,0.76 0.58,1.38667 1,1.88c0.42,0.49333 0.91333,0.85 1.48,1.07c0.56,0.22667 1.16667,0.34 1.82,0.34v0c0.6,0 1.22,-0.08 1.86,-0.24c0.64667,-0.16667 1.15333,-0.36333 1.52,-0.59v0l1.23,-5.77c-0.51333,-0.04 -0.99333,-0.14333 -1.44,-0.31c-0.45333,-0.16667 -0.85333,-0.36 -1.2,-0.58v0l0.25,-1.17h8.38l-0.24,1.17c-0.22667,0.18 -0.51,0.34667 -0.85,0.5c-0.33333,0.15333 -0.74667,0.28333 -1.24,0.39zM92.042,117.789h2.15v1.04c-0.2,0.16667 -0.47,0.33333 -0.81,0.5c-0.34,0.16 -0.71,0.30333 -1.11,0.43c-0.4,0.12 -0.82,0.22 -1.26,0.3c-0.44,0.08667 -0.87333,0.13 -1.3,0.13v0c-0.74,0 -1.24667,-0.15 -1.52,-0.45c-0.28,-0.29333 -0.42,-0.60667 -0.42,-0.94v0c0,-0.36667 0.04333,-0.87667 0.13,-1.53c0.08,-0.65333 0.24333,-1.41333 0.49,-2.28v0h-0.13c-0.26,0.49333 -0.59667,1.04667 -1.01,1.66c-0.40667,0.62 -0.88667,1.2 -1.44,1.74c-0.55333,0.54 -1.19,0.99 -1.91,1.35c-0.71333,0.36 -1.5,0.54 -2.36,0.54v0c-0.84,0 -1.52333,-0.25 -2.05,-0.75c-0.52,-0.50667 -0.78,-1.22 -0.78,-2.14v0c0,-0.44667 0.06667,-1.09 0.2,-1.93c0.13333,-0.84 0.29667,-1.75667 0.49,-2.75c0.19333,-0.99333 0.41,-2.02 0.65,-3.08c0.23333,-1.05333 0.44333,-2.02 0.63,-2.9v0l-1.82,-0.4v-1.04c0.33333,-0.12667 0.74333,-0.25 1.23,-0.37c0.49333,-0.12667 1.00667,-0.24 1.54,-0.34c0.53333,-0.1 1.07667,-0.18667 1.63,-0.26c0.55333,-0.07333 1.05333,-0.12 1.5,-0.14v0l0.68,0.37c-0.32667,1.53333 -0.66,2.99333 -1,4.38c-0.34,1.38 -0.65333,2.84 -0.94,4.38v0c-0.1,0.48667 -0.20667,1.02667 -0.32,1.62c-0.11333,0.59333 -0.17,1.19 -0.17,1.79v0c0,0.36667 0.09667,0.64 0.29,0.82c0.2,0.18667 0.44333,0.28 0.73,0.28v0c0.50667,0 1.01333,-0.2 1.52,-0.6c0.5,-0.4 0.96,-0.88 1.38,-1.44c0.42,-0.56667 0.78667,-1.14667 1.1,-1.74c0.32,-0.59333 0.55333,-1.08333 0.7,-1.47v0l1.59,-8.02h4.15zM107.832,115.789l0.74,0.77c-0.22667,0.41333 -0.55333,0.84 -0.98,1.28c-0.43333,0.44 -0.93667,0.83667 -1.51,1.19c-0.57333,0.36 -1.20667,0.66 -1.9,0.9c-0.7,0.23333 -1.42667,0.35 -2.18,0.35v0c-1.82667,0 -3.24667,-0.49667 -4.26,-1.49c-1.01333,-0.99333 -1.52,-2.40333 -1.52,-4.23v0c0,-1.40667 0.22667,-2.73667 0.68,-3.99c0.44667,-1.24667 1.07667,-2.34667 1.89,-3.3c0.80667,-0.95333 1.76667,-1.70667 2.88,-2.26c1.12,-0.55333 2.34333,-0.83 3.67,-0.83v0c1.23333,0 2.25,0.28333 3.05,0.85c0.79333,0.56 1.19,1.33333 1.19,2.32v0c0,1.38667 -0.69,2.53333 -2.07,3.44c-1.38,0.9 -3.61667,1.46333 -6.71,1.69v0c-0.06,0.28667 -0.10667,0.57667 -0.14,0.87c-0.03333,0.3 -0.05,0.58333 -0.05,0.85v0c0,1.16667 0.29667,2.06 0.89,2.68c0.6,0.62667 1.36,0.94 2.28,0.94v0c0.38667,0 0.77667,-0.06 1.17,-0.18c0.38667,-0.12667 0.76,-0.29 1.12,-0.49c0.35333,-0.20667 0.68,-0.43 0.98,-0.67c0.3,-0.23333 0.56,-0.46333 0.78,-0.69zM104.642,105.929v0c-0.7,0 -1.37,0.38 -2.01,1.14c-0.64667,0.76 -1.18667,2.04 -1.62,3.84v0c1.52,-0.04 2.74333,-0.37667 3.67,-1.01c0.93333,-0.64 1.4,-1.47 1.4,-2.49v0c0,-0.41333 -0.10667,-0.76333 -0.32,-1.05c-0.21333,-0.28667 -0.58667,-0.43 -1.12,-0.43zM116.932,116.529v0c0,-0.45333 -0.12333,-0.85667 -0.37,-1.21c-0.24667,-0.36 -0.55333,-0.71333 -0.92,-1.06c-0.37333,-0.34667 -0.78,-0.69 -1.22,-1.03c-0.44,-0.34 -0.84333,-0.72333 -1.21,-1.15c-0.36667,-0.43333 -0.67333,-0.91 -0.92,-1.43c-0.24667,-0.52667 -0.37,-1.13667 -0.37,-1.83v0c0,-1.55333 0.55667,-2.71667 1.67,-3.49c1.12,-0.76667 2.64333,-1.15 4.57,-1.15v0c0.32667,0 0.69,0.01667 1.09,0.05c0.39333,0.02667 0.79667,0.08333 1.21,0.17c0.40667,0.08 0.8,0.17667 1.18,0.29c0.38,0.11333 0.72333,0.26 1.03,0.44v0c0.02,0.22667 0.00333,0.52 -0.05,0.88c-0.04667,0.36 -0.13667,0.71667 -0.27,1.07c-0.13333,0.36 -0.30667,0.69 -0.52,0.99c-0.22,0.29333 -0.48333,0.49333 -0.79,0.6v0l-2.45,-2.74c-0.66,0 -1.21,0.13333 -1.65,0.4c-0.44,0.26667 -0.66,0.73667 -0.66,1.41v0c0,0.45333 0.13,0.86333 0.39,1.23c0.25333,0.37333 0.56333,0.72667 0.93,1.06c0.37333,0.34 0.78333,0.68333 1.23,1.03c0.45333,0.34667 0.86333,0.73 1.23,1.15c0.36667,0.42 0.68,0.89667 0.94,1.43c0.25333,0.53333 0.38,1.15 0.38,1.85v0c0,0.77333 -0.17333,1.45667 -0.52,2.05c-0.34667,0.6 -0.82333,1.10333 -1.43,1.51c-0.60667,0.40667 -1.33,0.71333 -2.17,0.92c-0.84,0.20667 -1.75,0.31 -2.73,0.31v0c-1.04667,0 -1.98333,-0.11667 -2.81,-0.35c-0.82667,-0.24 -1.44667,-0.50333 -1.86,-0.79v0c-0.02,-0.65333 0.09667,-1.29667 0.35,-1.93c0.26,-0.64 0.63667,-1.13333 1.13,-1.48v0l2.98,2.8c0.67333,0 1.27667,-0.16333 1.81,-0.49c0.53333,-0.33333 0.8,-0.83667 0.8,-1.51zM124.542,106.489v-1.2c0.39333,-0.24667 0.82667,-0.45667 1.3,-0.63c0.46667,-0.17333 0.92667,-0.31333 1.38,-0.42v0l0.49,-2.33c0.14,-0.12667 0.36333,-0.24667 0.67,-0.36c0.31333,-0.10667 0.65333,-0.20667 1.02,-0.3c0.36667,-0.09333 0.74,-0.18 1.12,-0.26c0.38,-0.08667 0.72333,-0.15 1.03,-0.19v0l0.64,0.37l-0.73,3.38h3.59c0.04,0.24667 0.02667,0.57 -0.04,0.97c-0.07333,0.4 -0.19333,0.72333 -0.36,0.97v0h-3.59l-1.78,7.95c-0.08667,0.39333 -0.15,0.73667 -0.19,1.03c-0.04,0.3 -0.06,0.57333 -0.06,0.82v0c0,0.52667 0.13333,0.91333 0.4,1.16c0.26667,0.24667 0.62333,0.37 1.07,0.37v0c0.51333,0 0.99667,-0.06 1.45,-0.18c0.44667,-0.12667 0.87667,-0.30333 1.29,-0.53v0l0.4,0.8c-0.24667,0.26667 -0.57333,0.54 -0.98,0.82c-0.41333,0.27333 -0.87667,0.53 -1.39,0.77c-0.51333,0.23333 -1.06667,0.42 -1.66,0.56c-0.59333,0.14667 -1.19667,0.22 -1.81,0.22v0c-1.06667,0 -1.86333,-0.24667 -2.39,-0.74c-0.53333,-0.49333 -0.8,-1.17 -0.8,-2.03v0c0,-0.46667 0.04,-0.96667 0.12,-1.5c0.08,-0.53333 0.16333,-0.98333 0.25,-1.35v0l1.78,-8.17zM137.362,119.939h-3.66l0.21,-1.17c0.45333,-0.22 0.91667,-0.41333 1.39,-0.58c0.46667,-0.16667 0.91667,-0.27 1.35,-0.31v0l3.69,-17.39c-0.41333,-0.08 -0.82333,-0.19667 -1.23,-0.35c-0.41333,-0.15333 -0.78333,-0.33333 -1.11,-0.54v0l0.25,-1.16h4.88c0.78,0 1.53333,-0.03333 2.26,-0.1c0.72667,-0.06 1.54,-0.09 2.44,-0.09v0c0.98667,0 1.88667,0.07667 2.7,0.23c0.82,0.15333 1.52333,0.39 2.11,0.71c0.58,0.32 1.03667,0.74 1.37,1.26c0.32667,0.52 0.49,1.15 0.49,1.89v0c0,0.86 -0.15,1.62667 -0.45,2.3c-0.29333,0.68 -0.70333,1.27333 -1.23,1.78c-0.52,0.51333 -1.14,0.93333 -1.86,1.26c-0.71333,0.32667 -1.49,0.57333 -2.33,0.74v0v0.12c0.55333,0.04667 1.10667,0.15 1.66,0.31c0.55333,0.16667 1.05,0.41333 1.49,0.74c0.44,0.32667 0.79667,0.74 1.07,1.24c0.28,0.5 0.42,1.1 0.42,1.8v0c0,1.10667 -0.22,2.11667 -0.66,3.03c-0.44,0.90667 -1.09,1.69333 -1.95,2.36c-0.86,0.66667 -1.93667,1.18333 -3.23,1.55c-1.28667,0.37333 -2.78,0.56 -4.48,0.56v0c-0.43333,0 -0.9,-0.01333 -1.4,-0.04c-0.5,-0.02 -1.00667,-0.04 -1.52,-0.06c-0.51333,-0.02 -1.00667,-0.04 -1.48,-0.06c-0.46667,-0.02 -0.86333,-0.03 -1.19,-0.03zM143.352,118.129v0c0.75333,0 1.44667,-0.13333 2.08,-0.4c0.64,-0.26667 1.18333,-0.64 1.63,-1.12c0.45333,-0.48 0.80667,-1.04333 1.06,-1.69c0.26,-0.64667 0.39,-1.35 0.39,-2.11v0c0,-1.12667 -0.36333,-1.87333 -1.09,-2.24c-0.72667,-0.36667 -1.74667,-0.55 -3.06,-0.55v0h-1.63l-1.66,7.89c0.26667,0.06667 0.55333,0.12 0.86,0.16c0.30667,0.04 0.78,0.06 1.42,0.06zM143.162,108.019h0.98c0.35333,0 0.70667,-0.01333 1.06,-0.04c0.36,-0.03333 0.69333,-0.07 1,-0.11v0c1.23333,-0.47333 2.15667,-1.15 2.77,-2.03c0.61333,-0.88 0.92,-1.90333 0.92,-3.07v0c0,-0.8 -0.23667,-1.42 -0.71,-1.86c-0.46667,-0.44 -1.23333,-0.66 -2.3,-0.66v0c-0.43333,0 -0.81667,0.01 -1.15,0.03c-0.34,0.02 -0.65333,0.05 -0.94,0.09v0zM155.112,114.009v0c0,-1.10667 0.18333,-2.23667 0.55,-3.39c0.37333,-1.16 0.93667,-2.21667 1.69,-3.17c0.76,-0.95333 1.72,-1.73667 2.88,-2.35c1.15333,-0.61333 2.51,-0.92 4.07,-0.92v0c1.84,0 3.28333,0.50333 4.33,1.51c1.04,1 1.56,2.49333 1.56,4.48v0c0,1.35333 -0.20333,2.64 -0.61,3.86c-0.40667,1.21333 -1,2.28667 -1.78,3.22c-0.78,0.93333 -1.72667,1.67 -2.84,2.21c-1.12,0.54667 -2.39667,0.82 -3.83,0.82v0c-0.86,0 -1.65667,-0.13 -2.39,-0.39c-0.74,-0.25333 -1.38,-0.64 -1.92,-1.16c-0.54667,-0.52667 -0.96667,-1.17667 -1.26,-1.95c-0.3,-0.78 -0.45,-1.70333 -0.45,-2.77zM163.772,105.929v0c-0.81333,0 -1.49333,0.30667 -2.04,0.92c-0.54,0.62 -0.98,1.39333 -1.32,2.32c-0.34,0.93333 -0.58,1.94333 -0.72,3.03c-0.14667,1.08667 -0.22,2.09 -0.22,3.01v0c0,1.04667 0.2,1.86 0.6,2.44c0.4,0.58667 0.95,0.88 1.65,0.88v0c0.59333,0 1.14,-0.25333 1.64,-0.76c0.5,-0.5 0.93667,-1.17333 1.31,-2.02c0.36667,-0.85333 0.65333,-1.82667 0.86,-2.92c0.2,-1.09333 0.3,-2.23667 0.3,-3.43v0c0,-1.12667 -0.17667,-1.98667 -0.53,-2.58c-0.36,-0.59333 -0.87,-0.89 -1.53,-0.89zM171.982,114.009v0c0,-1.10667 0.18333,-2.23667 0.55,-3.39c0.36667,-1.16 0.93,-2.21667 1.69,-3.17c0.76,-0.95333 1.71667,-1.73667 2.87,-2.35c1.16,-0.61333 2.51667,-0.92 4.07,-0.92v0c1.84667,0 3.29,0.50333 4.33,1.51c1.04667,1 1.57,2.49333 1.57,4.48v0c0,1.35333 -0.20333,2.64 -0.61,3.86c-0.41333,1.21333 -1.01,2.28667 -1.79,3.22c-0.77333,0.93333 -1.72,1.67 -2.84,2.21c-1.11333,0.54667 -2.38667,0.82 -3.82,0.82v0c-0.86,0 -1.66,-0.13 -2.4,-0.39c-0.73333,-0.25333 -1.37333,-0.64 -1.92,-1.16c-0.54,-0.52667 -0.96,-1.17667 -1.26,-1.95c-0.29333,-0.78 -0.44,-1.70333 -0.44,-2.77zM180.642,105.929v0c-0.82,0 -1.5,0.30667 -2.04,0.92c-0.54667,0.62 -0.98667,1.39333 -1.32,2.32c-0.34,0.93333 -0.58333,1.94333 -0.73,3.03c-0.14,1.08667 -0.21,2.09 -0.21,3.01v0c0,1.04667 0.2,1.86 0.6,2.44c0.4,0.58667 0.94667,0.88 1.64,0.88v0c0.59333,0 1.14,-0.25333 1.64,-0.76c0.50667,-0.5 0.94333,-1.17333 1.31,-2.02c0.36667,-0.85333 0.65333,-1.82667 0.86,-2.92c0.20667,-1.09333 0.31,-2.23667 0.31,-3.43v0c0,-1.12667 -0.18,-1.98667 -0.54,-2.58c-0.36,-0.59333 -0.86667,-0.89 -1.52,-0.89zM197.632,118.529v0c-0.57333,-0.98667 -1.03,-1.96 -1.37,-2.92c-0.34,-0.96 -0.66333,-1.87 -0.97,-2.73v0l-1.01,-0.31l-1.38,7.34h-4.3l4.08,-20.55l-2.06,-0.4v-1.05c0.28667,-0.12 0.66667,-0.24667 1.14,-0.38c0.47333,-0.13333 0.98667,-0.25 1.54,-0.35c0.55333,-0.10667 1.13,-0.19333 1.73,-0.26c0.60667,-0.07333 1.19667,-0.11 1.77,-0.11v0l0.64,0.34l-2.85,14.07h0.98c0.34667,-0.26667 0.70333,-0.58667 1.07,-0.96c0.37333,-0.36667 0.72333,-0.73333 1.05,-1.1c0.32667,-0.36667 0.61667,-0.73 0.87,-1.09c0.26,-0.36 0.46,-0.66333 0.6,-0.91v0c0.02,-0.14 0.03667,-0.33333 0.05,-0.58c0.01333,-0.24667 0.01333,-0.5 0,-0.76c-0.01333,-0.25333 -0.02333,-0.49667 -0.03,-0.73c-0.01333,-0.24 -0.03,-0.42 -0.05,-0.54v0c0.35333,-0.12 0.79333,-0.21667 1.32,-0.29c0.53333,-0.07333 1.07667,-0.11 1.63,-0.11v0c0.55333,0 1.07,0.03667 1.55,0.11c0.48667,0.07333 0.84,0.17 1.06,0.29v0c-0.26667,0.67333 -0.66,1.34 -1.18,2c-0.52,0.65333 -1.08333,1.26667 -1.69,1.84c-0.60667,0.57333 -1.2,1.09 -1.78,1.55c-0.58667,0.46 -1.06333,0.82333 -1.43,1.09v0c0.14667,0.39333 0.36667,0.88667 0.66,1.48c0.3,0.59333 0.63333,1.21333 1,1.86c0.36667,0.64 0.75667,1.26333 1.17,1.87c0.40667,0.60667 0.78333,1.12333 1.13,1.55v0h1.66v1.04c-0.2,0.16667 -0.46,0.33333 -0.78,0.5c-0.32,0.16 -0.66333,0.30333 -1.03,0.43c-0.36667,0.12 -0.74667,0.22 -1.14,0.3c-0.38667,0.08667 -0.76333,0.13 -1.13,0.13v0c-0.49333,0 -0.95,-0.11333 -1.37,-0.34c-0.42,-0.22667 -0.80333,-0.66667 -1.15,-1.32z"></path></g></g></svg>