<svg xmlns="http://www.w3.org/2000/svg" xmlns:xlink="http://www.w3.org/1999/xlink" viewBox="0,0,256,256" width="50px" height="50px"><g fill="none" fill-rule="nonzero" stroke="none" stroke-width="1" stroke-linecap="butt" stroke-linejoin="miter" stroke-miterlimit="10" stroke-dasharray="" stroke-dashoffset="0" font-family="none" font-weight="none" font-size="none" text-anchor="none" style="mix-blend-mode: normal"><g transform="scale(5.12,5.12)"><path d="M47,9.99v4.62l-18,25.4l-9,-9.814l-17,-5.196v-4.62z" fill="#5ccae6"></path><path d="M47,9.989v4.619l-18,25.403v-4.619z" fill="#363739"></path><path d="M20,25.577v4.619l9,9.815v-4.619z" fill="#646875"></path><path d="M20,25.577v4.619l-17,-5.196v-4.619z" fill="#66e1ff"></path><path d="M20,25.577l27,-15.588l-18,25.403z" fill="#777c8a"></path></g></g><g fill="#fffc00" fill-rule="nonzero" stroke="none" stroke-width="1" stroke-linecap="butt" stroke-linejoin="miter" stroke-miterlimit="10" stroke-dasharray="" stroke-dashoffset="0" font-family="none" font-weight="none" font-size="none" text-anchor="none" style="mix-blend-mode: normal"><g><path d="M77.696,108.341l-2.05,9.67c0.57333,0.16 1.09333,0.34333 1.56,0.55c0.46667,0.20667 0.89,0.41667 1.27,0.63v0l-0.29,1.56h-12.61l0.28,-1.56c0.68667,-0.32667 1.32333,-0.57667 1.91,-0.75c0.58667,-0.18 1.16667,-0.32333 1.74,-0.43v0l4.91,-23.19c-1.33333,-0.3 -2.37,-0.69667 -3.11,-1.19v0l0.33,-1.55h4.34c0.54667,0 1.16667,-0.01333 1.86,-0.04c0.7,-0.02667 1.43333,-0.06333 2.2,-0.11c0.76,-0.04 1.53667,-0.08 2.33,-0.12c0.79333,-0.04 1.54333,-0.06 2.25,-0.06v0c3.03333,0 5.28,0.58667 6.74,1.76c1.46,1.17333 2.19,2.84 2.19,5v0c0,1.00667 -0.16333,1.98333 -0.49,2.93c-0.32667,0.94 -0.81,1.81333 -1.45,2.62c-0.64667,0.80667 -1.44,1.51667 -2.38,2.13c-0.94,0.61333 -2.04,1.09667 -3.3,1.45v0c0.71333,1.72 1.59667,3.47 2.65,5.25c1.04667,1.77333 2.07667,3.49333 3.09,5.16v0l1.72,1.31l-0.29,1.39h-6.51l-1.52,-1.35c-0.92667,-1.5 -1.78,-3.24 -2.56,-5.22c-0.77333,-1.98 -1.34,-3.92667 -1.7,-5.84v0zM82.736,94.411v0c-0.44,0 -0.83667,0.02667 -1.19,0.08c-0.35333,0.06 -0.68,0.11667 -0.98,0.17v0l-2.42,11.43h2.38c1.12,0 2.09667,-0.21333 2.93,-0.64c0.83333,-0.42 1.52,-0.99333 2.06,-1.72c0.54667,-0.72 0.95667,-1.54667 1.23,-2.48c0.27333,-0.92667 0.41,-1.91 0.41,-2.95v0c0.02667,-1.39333 -0.32,-2.39 -1.04,-2.99c-0.72667,-0.6 -1.85333,-0.9 -3.38,-0.9zM110.756,115.261l0.98,1.03c-0.3,0.54 -0.73667,1.10667 -1.31,1.7c-0.57333,0.58667 -1.24333,1.11667 -2.01,1.59c-0.76667,0.48 -1.61333,0.87667 -2.54,1.19c-0.92667,0.31333 -1.89667,0.47 -2.91,0.47v0c-2.42667,0 -4.31667,-0.66333 -5.67,-1.99c-1.35333,-1.32 -2.03,-3.19667 -2.03,-5.63v0c0,-1.88 0.3,-3.65333 0.9,-5.32c0.60667,-1.66667 1.44667,-3.13667 2.52,-4.41c1.08,-1.26667 2.36333,-2.27 3.85,-3.01c1.49333,-0.73333 3.12667,-1.1 4.9,-1.1v0c1.64,0 2.99,0.37333 4.05,1.12c1.06667,0.75333 1.6,1.78667 1.6,3.1v0c0,1.85333 -0.92,3.38 -2.76,4.58c-1.84667,1.20667 -4.83,1.96 -8.95,2.26v0c-0.08667,0.38 -0.15,0.77 -0.19,1.17c-0.04,0.39333 -0.06,0.76667 -0.06,1.12v0c0,1.56 0.39667,2.75667 1.19,3.59c0.79333,0.82667 1.80333,1.24 3.03,1.24v0c0.52,0 1.04,-0.08 1.56,-0.24c0.51333,-0.16667 1.01,-0.38667 1.49,-0.66c0.48,-0.27333 0.91667,-0.56667 1.31,-0.88c0.4,-0.31333 0.75,-0.62 1.05,-0.92zM106.496,102.111v0c-0.93333,0 -1.83,0.50667 -2.69,1.52c-0.86,1.00667 -1.57667,2.71333 -2.15,5.12v0c2.02,-0.05333 3.65333,-0.50333 4.9,-1.35c1.24,-0.84667 1.86,-1.95333 1.86,-3.32v0c0,-0.54667 -0.14333,-1.01 -0.43,-1.39c-0.28667,-0.38667 -0.78333,-0.58 -1.49,-0.58zM122.876,116.241v0c0,-0.6 -0.16333,-1.13667 -0.49,-1.61c-0.32667,-0.48 -0.73667,-0.95333 -1.23,-1.42c-0.49333,-0.46 -1.03333,-0.91667 -1.62,-1.37c-0.58667,-0.44667 -1.12667,-0.95667 -1.62,-1.53c-0.48667,-0.57333 -0.89333,-1.21 -1.22,-1.91c-0.33333,-0.69333 -0.5,-1.50667 -0.5,-2.44v0c0,-2.07333 0.74667,-3.62333 2.24,-4.65c1.48667,-1.02 3.51333,-1.53 6.08,-1.53v0c0.43333,0 0.91667,0.02 1.45,0.06c0.53333,0.04 1.07333,0.11667 1.62,0.23c0.54667,0.10667 1.07333,0.23333 1.58,0.38c0.50667,0.15333 0.96333,0.35333 1.37,0.6v0c0.02667,0.3 0.00667,0.69 -0.06,1.17c-0.06667,0.47333 -0.19,0.95 -0.37,1.43c-0.18,0.48 -0.41333,0.91667 -0.7,1.31c-0.28667,0.39333 -0.63333,0.66 -1.04,0.8v0l-3.28,-3.65c-0.87333,0 -1.60333,0.18 -2.19,0.54c-0.58667,0.35333 -0.88,0.98 -0.88,1.88v0c0,0.6 0.17,1.14667 0.51,1.64c0.34,0.49333 0.75667,0.96333 1.25,1.41c0.49333,0.45333 1.04,0.91 1.64,1.37c0.6,0.46667 1.14667,0.98 1.64,1.54c0.49333,0.56 0.91,1.19333 1.25,1.9c0.34,0.71333 0.51,1.53333 0.51,2.46v0c0,1.04 -0.23333,1.95667 -0.7,2.75c-0.46,0.78667 -1.09333,1.45333 -1.9,2c-0.80667,0.54667 -1.77,0.95667 -2.89,1.23c-1.12,0.27333 -2.33333,0.41 -3.64,0.41v0c-1.39333,0 -2.64333,-0.15667 -3.75,-0.47c-1.10667,-0.31333 -1.93333,-0.66 -2.48,-1.04v0c-0.02667,-0.87333 0.13,-1.73333 0.47,-2.58c0.34,-0.84667 0.84,-1.50333 1.5,-1.97v0l3.97,3.73c0.9,0 1.70667,-0.22 2.42,-0.66c0.70667,-0.43333 1.06,-1.10333 1.06,-2.01zM150.686,117.921h2.87v1.4c-0.27333,0.21333 -0.63667,0.43 -1.09,0.65c-0.44667,0.22 -0.93667,0.41333 -1.47,0.58c-0.53333,0.16 -1.09333,0.29333 -1.68,0.4c-0.58667,0.11333 -1.16667,0.17 -1.74,0.17v0c-0.98667,0 -1.66333,-0.2 -2.03,-0.6c-0.36667,-0.39333 -0.55,-0.80667 -0.55,-1.24v0c0,-0.49333 0.05333,-1.17667 0.16,-2.05c0.11333,-0.87333 0.33333,-1.88333 0.66,-3.03v0h-0.17c-0.35333,0.65333 -0.80333,1.39 -1.35,2.21c-0.54667,0.82 -1.18667,1.59 -1.92,2.31c-0.74,0.72667 -1.58667,1.32667 -2.54,1.8c-0.96,0.48 -2.01333,0.72 -3.16,0.72v0c-1.12,0 -2.02667,-0.33333 -2.72,-1c-0.69333,-0.67333 -1.04,-1.62333 -1.04,-2.85v0c0,-0.6 0.08667,-1.46 0.26,-2.58c0.18,-1.12 0.4,-2.34333 0.66,-3.67c0.26,-1.32 0.54667,-2.68333 0.86,-4.09c0.31333,-1.40667 0.59333,-2.69667 0.84,-3.87v0l-2.42,-0.53v-1.4c0.44,-0.16 0.98667,-0.32333 1.64,-0.49c0.65333,-0.16 1.33667,-0.31 2.05,-0.45c0.70667,-0.13333 1.43,-0.25 2.17,-0.35c0.73333,-0.09333 1.4,-0.15333 2,-0.18v0l0.91,0.49c-0.44,2.04667 -0.88667,3.99333 -1.34,5.84c-0.44667,1.84 -0.86333,3.78333 -1.25,5.83v0c-0.13333,0.66 -0.27667,1.38333 -0.43,2.17c-0.14667,0.79333 -0.22,1.58667 -0.22,2.38v0c0,0.49333 0.13,0.86333 0.39,1.11c0.26,0.24 0.58,0.36 0.96,0.36v0c0.68667,0 1.36333,-0.26333 2.03,-0.79c0.66667,-0.53333 1.28,-1.17667 1.84,-1.93c0.56,-0.75333 1.05333,-1.52333 1.48,-2.31c0.42,-0.79333 0.72667,-1.45 0.92,-1.97v0l2.13,-10.69h5.53zM179.806,115.921l1.77,-7.46c0.13333,-0.62667 0.28333,-1.30333 0.45,-2.03c0.16,-0.72 0.24,-1.28667 0.24,-1.7v0c0,-0.51333 -0.08667,-0.92 -0.26,-1.22c-0.18,-0.3 -0.50333,-0.45 -0.97,-0.45v0c-0.46,0 -0.93667,0.17 -1.43,0.51c-0.49333,0.34 -0.97,0.79 -1.43,1.35c-0.46667,0.56 -0.91333,1.19333 -1.34,1.9c-0.42,0.71333 -0.79333,1.43667 -1.12,2.17v0l-2.66,11.76h-5.49l2.5,-11.51c0.18667,-0.84667 0.35,-1.66667 0.49,-2.46c0.13333,-0.79333 0.2,-1.53 0.2,-2.21v0c0,-1.00667 -0.38,-1.51 -1.14,-1.51v0c-0.38667,0 -0.82667,0.17667 -1.32,0.53c-0.48667,0.35333 -0.97667,0.81 -1.47,1.37c-0.49333,0.56 -0.95667,1.19333 -1.39,1.9c-0.44,0.71333 -0.78333,1.44 -1.03,2.18v0l-2.37,11.71h-5.74l3.65,-17.57l-2.34,-0.53v-1.4c0.44,-0.21333 0.98,-0.41667 1.62,-0.61c0.64,-0.19333 1.31667,-0.35 2.03,-0.47c0.70667,-0.12667 1.43,-0.22333 2.17,-0.29c0.74,-0.06667 1.42333,-0.1 2.05,-0.1v0l0.86,0.49l-1.6,5.98h0.16c0.41333,-0.74 0.91333,-1.49667 1.5,-2.27c0.58667,-0.78 1.25,-1.47667 1.99,-2.09c0.73333,-0.61333 1.52333,-1.12 2.37,-1.52c0.84667,-0.39333 1.70667,-0.59 2.58,-0.59v0c0.32667,0 0.67,0.05333 1.03,0.16c0.35333,0.11333 0.68667,0.31333 1,0.6c0.31333,0.28667 0.56667,0.67333 0.76,1.16c0.18667,0.49333 0.28,1.12333 0.28,1.89v0c0,0.38 -0.03333,0.81667 -0.1,1.31c-0.06667,0.49333 -0.15333,0.94333 -0.26,1.35v0c0.46,-0.84667 1.00333,-1.66667 1.63,-2.46c0.63333,-0.79333 1.31,-1.48333 2.03,-2.07c0.72667,-0.58667 1.49333,-1.05667 2.3,-1.41c0.8,-0.35333 1.63667,-0.53 2.51,-0.53v0c1.04,0 1.88667,0.32667 2.54,0.98c0.66,0.65333 0.99,1.55333 0.99,2.7v0c0,0.88 -0.08333,1.71333 -0.25,2.5c-0.16,0.79333 -0.33667,1.62667 -0.53,2.5v0l-2.34,9.46h2.87v1.4c-0.27333,0.21333 -0.64667,0.43 -1.12,0.65c-0.48,0.22 -0.99333,0.41333 -1.54,0.58c-0.54667,0.16 -1.10667,0.29333 -1.68,0.4c-0.57333,0.11333 -1.10667,0.17 -1.6,0.17v0c-0.98,0 -1.66333,-0.2 -2.05,-0.6c-0.38,-0.39333 -0.57,-0.83667 -0.57,-1.33v0c0,-0.78667 0.19,-1.87667 0.57,-3.27zM206.516,115.261l0.98,1.03c-0.3,0.54 -0.73667,1.10667 -1.31,1.7c-0.57333,0.58667 -1.24,1.11667 -2,1.59c-0.76667,0.48 -1.61333,0.87667 -2.54,1.19c-0.93333,0.31333 -1.90333,0.47 -2.91,0.47v0c-2.43333,0 -4.32667,-0.66333 -5.68,-1.99c-1.34667,-1.32 -2.02,-3.19667 -2.02,-5.63v0c0,-1.88 0.3,-3.65333 0.9,-5.32c0.6,-1.66667 1.44,-3.13667 2.52,-4.41c1.08,-1.26667 2.36333,-2.27 3.85,-3.01c1.48667,-0.73333 3.11667,-1.1 4.89,-1.1v0c1.64,0 2.99333,0.37333 4.06,1.12c1.06667,0.75333 1.6,1.78667 1.6,3.1v0c0,1.85333 -0.92333,3.38 -2.77,4.58c-1.84,1.20667 -4.82333,1.96 -8.95,2.26v0c-0.08,0.38 -0.14,0.77 -0.18,1.17c-0.04667,0.39333 -0.07,0.76667 -0.07,1.12v0c0,1.56 0.39667,2.75667 1.19,3.59c0.79333,0.82667 1.80333,1.24 3.03,1.24v0c0.52,0 1.04,-0.08 1.56,-0.24c0.52,-0.16667 1.02,-0.38667 1.5,-0.66c0.47333,-0.27333 0.91,-0.56667 1.31,-0.88c0.39333,-0.31333 0.74,-0.62 1.04,-0.92zM202.256,102.111v0c-0.92667,0 -1.82,0.50667 -2.68,1.52c-0.86,1.00667 -1.57667,2.71333 -2.15,5.12v0c2.02,-0.05333 3.65,-0.50333 4.89,-1.35c1.24667,-0.84667 1.87,-1.95333 1.87,-3.32v0c0,-0.54667 -0.14333,-1.01 -0.43,-1.39c-0.28667,-0.38667 -0.78667,-0.58 -1.5,-0.58z"></path></g></g></svg>