<svg xmlns="http://www.w3.org/2000/svg" xmlns:xlink="http://www.w3.org/1999/xlink" viewBox="0,0,256,256" width="50px" height="50px"><g fill="none" fill-rule="nonzero" stroke="none" stroke-width="1" stroke-linecap="butt" stroke-linejoin="miter" stroke-miterlimit="10" stroke-dasharray="" stroke-dashoffset="0" font-family="none" font-weight="none" font-size="none" text-anchor="none" style="mix-blend-mode: normal"><g transform="scale(5.12,5.12)"><path d="M47,9.99v4.62l-18,25.4l-9,-9.814l-17,-5.196v-4.62z" fill="#505455"></path><path d="M47,9.989v4.619l-18,25.403v-4.619z" fill="#010102"></path><path d="M20,25.577v4.619l9,9.815v-4.619z" fill="#4f515b"></path><path d="M20,25.577v4.619l-17,-5.196v-4.619z" fill="#1b1d1e"></path><path d="M20,25.577l27,-15.588l-18,25.403z" fill="#1b1d25"></path></g></g><g fill="#fffc10" fill-rule="nonzero" stroke="none" stroke-width="1" stroke-linecap="butt" stroke-linejoin="miter" stroke-miterlimit="10" stroke-dasharray="" stroke-dashoffset="0" font-family="none" font-weight="none" font-size="none" text-anchor="none" style="mix-blend-mode: normal"><g><path d="M48.959,119.362l-1.69,8.03c-0.59333,0.31333 -1.26667,0.59667 -2.02,0.85c-0.75333,0.24667 -1.52,0.45333 -2.3,0.62c-0.77333,0.16667 -1.52,0.3 -2.24,0.4c-0.71333,0.09333 -1.33333,0.14 -1.86,0.14v0c-1.62667,0 -3.12,-0.20333 -4.48,-0.61c-1.36,-0.40667 -2.53,-1.02667 -3.51,-1.86c-0.98,-0.84 -1.74,-1.89333 -2.28,-3.16c-0.54,-1.26667 -0.81,-2.76 -0.81,-4.48v0c0,-2.36 0.35333,-4.51 1.06,-6.45c0.70667,-1.93333 1.72333,-3.6 3.05,-5c1.32667,-1.39333 2.95667,-2.47333 4.89,-3.24c1.93333,-0.76667 4.12,-1.15 6.56,-1.15v0c0.78667,0 1.57,0.03 2.35,0.09c0.77333,0.06 1.51333,0.14333 2.22,0.25c0.70667,0.10667 1.34667,0.24 1.92,0.4c0.57333,0.15333 1.03667,0.32667 1.39,0.52v0c-0.06667,0.35333 -0.18333,0.81333 -0.35,1.38c-0.17333,0.56 -0.36667,1.16333 -0.58,1.81c-0.21333,0.64 -0.44,1.28333 -0.68,1.93c-0.24,0.64667 -0.48,1.23333 -0.72,1.76v0h-1.47l-0.82,-5.45c-0.33333,-0.12 -0.80667,-0.21 -1.42,-0.27c-0.60667,-0.06 -1.17333,-0.09 -1.7,-0.09v0c-1.6,0 -3.00333,0.39 -4.21,1.17c-1.20667,0.77333 -2.21,1.81667 -3.01,3.13c-0.8,1.31333 -1.39667,2.83 -1.79,4.55c-0.39333,1.72 -0.59,3.52667 -0.59,5.42v0c0,1.24 0.14333,2.30333 0.43,3.19c0.28667,0.88 0.67333,1.60667 1.16,2.18c0.49333,0.57333 1.06667,0.99333 1.72,1.26c0.66,0.26 1.37333,0.39 2.14,0.39v0c0.68667,0 1.40667,-0.09667 2.16,-0.29c0.75333,-0.18667 1.34667,-0.41333 1.78,-0.68v0l1.43,-6.74c-0.59333,-0.04667 -1.15333,-0.16333 -1.68,-0.35c-0.52667,-0.19333 -0.99333,-0.42 -1.4,-0.68v0l0.29,-1.37h9.78l-0.29,1.37c-0.26,0.21333 -0.58667,0.41 -0.98,0.59c-0.39333,0.18 -0.87667,0.32667 -1.45,0.44zM68.129,126.502h2.51v1.22c-0.24,0.18667 -0.55667,0.37667 -0.95,0.57c-0.39333,0.19333 -0.82333,0.36 -1.29,0.5c-0.46667,0.14667 -0.95667,0.26667 -1.47,0.36c-0.51333,0.09333 -1.02,0.14 -1.52,0.14v0c-0.86,0 -1.45333,-0.17333 -1.78,-0.52c-0.32,-0.34667 -0.48,-0.71 -0.48,-1.09v0c0,-0.43333 0.04667,-1.03 0.14,-1.79c0.1,-0.76667 0.29333,-1.65 0.58,-2.65v0h-0.15c-0.30667,0.57333 -0.7,1.21667 -1.18,1.93c-0.48,0.72 -1.04333,1.39667 -1.69,2.03c-0.64,0.63333 -1.38,1.15667 -2.22,1.57c-0.83333,0.42 -1.75333,0.63 -2.76,0.63v0c-0.98,0 -1.77333,-0.29333 -2.38,-0.88c-0.60667,-0.58667 -0.91,-1.41667 -0.91,-2.49v0c0,-0.52667 0.07667,-1.28 0.23,-2.26c0.15333,-0.98 0.34333,-2.04667 0.57,-3.2c0.22667,-1.16 0.47667,-2.35667 0.75,-3.59c0.28,-1.22667 0.52667,-2.35667 0.74,-3.39v0l-2.11,-0.46v-1.22c0.38,-0.14 0.85667,-0.28333 1.43,-0.43c0.57333,-0.14 1.17,-0.27 1.79,-0.39c0.62,-0.12 1.25333,-0.22333 1.9,-0.31c0.64667,-0.08 1.23333,-0.13333 1.76,-0.16v0l0.78,0.43c-0.38,1.79333 -0.76667,3.49667 -1.16,5.11c-0.39333,1.61333 -0.75667,3.31333 -1.09,5.1v0c-0.12,0.57333 -0.24667,1.20667 -0.38,1.9c-0.13333,0.69333 -0.2,1.38667 -0.2,2.08v0c0,0.43333 0.11333,0.75667 0.34,0.97c0.22667,0.21333 0.51,0.32 0.85,0.32v0c0.59333,0 1.18333,-0.23333 1.77,-0.7c0.58667,-0.46 1.12333,-1.02 1.61,-1.68c0.49333,-0.66 0.92333,-1.33667 1.29,-2.03c0.37333,-0.68667 0.64333,-1.26 0.81,-1.72v0l1.86,-9.35h4.84zM86.549,124.172l0.86,0.89c-0.26,0.48 -0.64,0.97667 -1.14,1.49c-0.50667,0.51333 -1.09333,0.98 -1.76,1.4c-0.66667,0.42 -1.40667,0.76667 -2.22,1.04c-0.81333,0.27333 -1.66333,0.41 -2.55,0.41v0c-2.12667,0 -3.78,-0.58 -4.96,-1.74c-1.18667,-1.16 -1.78,-2.80333 -1.78,-4.93v0c0,-1.64667 0.26333,-3.2 0.79,-4.66c0.52667,-1.45333 1.26333,-2.73667 2.21,-3.85c0.94,-1.10667 2.06333,-1.98333 3.37,-2.63c1.3,-0.64667 2.72667,-0.97 4.28,-0.97v0c1.43333,0 2.61667,0.33 3.55,0.99c0.93333,0.65333 1.4,1.55333 1.4,2.7v0c0,1.62667 -0.80667,2.96667 -2.42,4.02c-1.61333,1.04667 -4.22667,1.70333 -7.84,1.97v0c-0.06667,0.33333 -0.12,0.67333 -0.16,1.02c-0.03333,0.34667 -0.05,0.67333 -0.05,0.98v0c0,1.36667 0.34667,2.41333 1.04,3.14c0.69333,0.72667 1.57667,1.09 2.65,1.09v0c0.45333,0 0.90667,-0.07 1.36,-0.21c0.45333,-0.14667 0.89,-0.34 1.31,-0.58c0.42,-0.23333 0.80333,-0.49 1.15,-0.77c0.34667,-0.27333 0.65,-0.54 0.91,-0.8zM82.819,112.662v0c-0.80667,0 -1.58667,0.44333 -2.34,1.33c-0.75333,0.88 -1.38,2.37333 -1.88,4.48v0c1.76667,-0.04667 3.19333,-0.44 4.28,-1.18c1.08667,-0.74 1.63,-1.71 1.63,-2.91v0c0,-0.47333 -0.12667,-0.88 -0.38,-1.22c-0.24667,-0.33333 -0.68333,-0.5 -1.31,-0.5zM97.159,125.032v0c0,-0.52667 -0.14333,-1 -0.43,-1.42c-0.28667,-0.42 -0.64333,-0.83 -1.07,-1.23c-0.43333,-0.40667 -0.90667,-0.81 -1.42,-1.21c-0.51333,-0.39333 -0.98667,-0.84 -1.42,-1.34c-0.42667,-0.5 -0.78333,-1.05667 -1.07,-1.67c-0.28667,-0.60667 -0.43,-1.31667 -0.43,-2.13v0c0,-1.81333 0.65,-3.17 1.95,-4.07c1.30667,-0.89333 3.08,-1.34 5.32,-1.34v0c0.38667,0 0.81333,0.01667 1.28,0.05c0.46667,0.04 0.93667,0.10667 1.41,0.2c0.48,0.09333 0.94,0.20667 1.38,0.34c0.44667,0.13333 0.84667,0.30667 1.2,0.52v0c0.02667,0.26667 0.01,0.60667 -0.05,1.02c-0.06,0.42 -0.16667,0.84 -0.32,1.26c-0.16,0.41333 -0.36333,0.79333 -0.61,1.14c-0.25333,0.34667 -0.56,0.58 -0.92,0.7v0l-2.86,-3.19c-0.76667,0 -1.40667,0.15667 -1.92,0.47c-0.51333,0.30667 -0.77,0.85667 -0.77,1.65v0c0,0.52667 0.15,1.00333 0.45,1.43c0.29333,0.43333 0.65667,0.84667 1.09,1.24c0.42667,0.39333 0.90333,0.79333 1.43,1.2c0.52667,0.40667 1.00667,0.85333 1.44,1.34c0.42667,0.49333 0.79,1.05 1.09,1.67c0.3,0.62 0.45,1.33667 0.45,2.15v0c0,0.90667 -0.20333,1.70667 -0.61,2.4c-0.40667,0.69333 -0.96333,1.28 -1.67,1.76c-0.70667,0.47333 -1.54667,0.83 -2.52,1.07c-0.98,0.24 -2.04333,0.36 -3.19,0.36v0c-1.22,0 -2.31333,-0.13667 -3.28,-0.41c-0.97333,-0.27333 -1.69667,-0.58 -2.17,-0.92v0c-0.02667,-0.76 0.11,-1.51 0.41,-2.25c0.3,-0.74 0.73667,-1.31333 1.31,-1.72v0l3.47,3.26c0.79333,0 1.5,-0.19333 2.12,-0.58c0.62,-0.38 0.93,-0.96333 0.93,-1.75zM106.049,113.312v-1.4c0.45333,-0.28667 0.95333,-0.53 1.5,-0.73c0.55333,-0.20667 1.09333,-0.37 1.62,-0.49v0l0.57,-2.72c0.16667,-0.14667 0.43,-0.28333 0.79,-0.41c0.36,-0.13333 0.75333,-0.25333 1.18,-0.36c0.43333,-0.10667 0.87,-0.21 1.31,-0.31c0.44,-0.09333 0.84,-0.16333 1.2,-0.21v0l0.75,0.43l-0.86,3.94h4.2c0.04667,0.28667 0.02667,0.66333 -0.06,1.13c-0.08,0.46667 -0.21667,0.84333 -0.41,1.13v0h-4.19l-2.08,9.28c-0.09333,0.45333 -0.16667,0.85333 -0.22,1.2c-0.04667,0.34667 -0.07,0.66333 -0.07,0.95v0c0,0.62 0.15667,1.07333 0.47,1.36c0.30667,0.28667 0.72333,0.43 1.25,0.43v0c0.6,0 1.16333,-0.07 1.69,-0.21c0.52667,-0.14667 1.02667,-0.35 1.5,-0.61v0l0.47,0.93c-0.28667,0.31333 -0.67,0.63 -1.15,0.95c-0.48,0.32 -1.01667,0.62 -1.61,0.9c-0.6,0.27333 -1.24667,0.49333 -1.94,0.66c-0.69333,0.16667 -1.39667,0.25 -2.11,0.25v0c-1.24667,0 -2.18,-0.28667 -2.8,-0.86c-0.62,-0.57333 -0.93,-1.36333 -0.93,-2.37v0c0,-0.54667 0.04667,-1.13 0.14,-1.75c0.1,-0.62 0.19667,-1.14667 0.29,-1.58v0l2.08,-9.53zM120.989,129.012h-4.26l0.25,-1.37c0.52667,-0.26 1.06333,-0.48667 1.61,-0.68c0.55333,-0.18667 1.08,-0.30667 1.58,-0.36v0l4.3,-20.28c-0.48,-0.09333 -0.95667,-0.23 -1.43,-0.41c-0.48,-0.18 -0.91,-0.39 -1.29,-0.63v0l0.28,-1.36h5.7c0.90667,0 1.78667,-0.03667 2.64,-0.11c0.84667,-0.07333 1.79667,-0.11 2.85,-0.11v0c1.14667,0 2.19667,0.09 3.15,0.27c0.95333,0.18 1.77,0.45667 2.45,0.83c0.68667,0.36667 1.22,0.85667 1.6,1.47c0.38,0.60667 0.57,1.34 0.57,2.2v0c0,1 -0.17333,1.89667 -0.52,2.69c-0.34667,0.78667 -0.82333,1.48 -1.43,2.08c-0.60667,0.59333 -1.33,1.08333 -2.17,1.47c-0.83333,0.38 -1.74,0.66667 -2.72,0.86v0v0.14c0.64667,0.04667 1.29,0.16667 1.93,0.36c0.64667,0.18667 1.22667,0.47333 1.74,0.86c0.51333,0.38 0.93333,0.86333 1.26,1.45c0.32,0.58667 0.48,1.28667 0.48,2.1v0c0,1.28667 -0.25667,2.46333 -0.77,3.53c-0.51333,1.06 -1.27333,1.98 -2.28,2.76c-1,0.77333 -2.25333,1.37667 -3.76,1.81c-1.50667,0.42667 -3.25,0.64 -5.23,0.64v0c-0.50667,0 -1.05,-0.01 -1.63,-0.03c-0.58667,-0.02667 -1.18,-0.05333 -1.78,-0.08c-0.59333,-0.02 -1.16667,-0.04333 -1.72,-0.07c-0.54667,-0.02 -1.01333,-0.03 -1.4,-0.03zM127.979,126.892v0c0.88667,0 1.7,-0.15333 2.44,-0.46c0.74,-0.31333 1.37333,-0.75 1.9,-1.31c0.52667,-0.56667 0.94,-1.22333 1.24,-1.97c0.29333,-0.75333 0.44,-1.57333 0.44,-2.46v0c0,-1.31333 -0.42333,-2.18667 -1.27,-2.62c-0.84667,-0.42667 -2.03333,-0.64 -3.56,-0.64v0h-1.9l-1.94,9.21c0.31333,0.07333 0.64667,0.13333 1,0.18c0.36,0.04667 0.91,0.07 1.65,0.07zM127.769,115.102h1.15c0.4,0 0.81,-0.01667 1.23,-0.05c0.42,-0.04 0.81,-0.08333 1.17,-0.13v0c1.43333,-0.54667 2.50667,-1.33333 3.22,-2.36c0.72,-1.03333 1.08,-2.23 1.08,-3.59v0c0,-0.93333 -0.27667,-1.65667 -0.83,-2.17c-0.54667,-0.51333 -1.44333,-0.77 -2.69,-0.77v0c-0.5,0 -0.94667,0.01333 -1.34,0.04c-0.39333,0.02 -0.75667,0.05667 -1.09,0.11v0zM141.709,122.092v0c0,-1.29333 0.21667,-2.61333 0.65,-3.96c0.42667,-1.35333 1.08333,-2.58333 1.97,-3.69c0.88,-1.11333 1.99667,-2.02667 3.35,-2.74c1.34667,-0.72 2.93,-1.08 4.75,-1.08v0c2.14667,0 3.83,0.58667 5.05,1.76c1.22,1.16667 1.83,2.91 1.83,5.23v0c0,1.57333 -0.24,3.07333 -0.72,4.5c-0.48,1.42 -1.17333,2.67333 -2.08,3.76c-0.90667,1.08667 -2.01,1.94667 -3.31,2.58c-1.30667,0.63333 -2.79667,0.95 -4.47,0.95v0c-1,0 -1.93,-0.15 -2.79,-0.45c-0.86,-0.3 -1.60667,-0.75333 -2.24,-1.36c-0.63333,-0.60667 -1.12333,-1.36667 -1.47,-2.28c-0.34667,-0.90667 -0.52,-1.98 -0.52,-3.22zM151.819,112.662v0c-0.96,0 -1.75667,0.36 -2.39,1.08c-0.63333,0.71333 -1.14667,1.61333 -1.54,2.7c-0.39333,1.08667 -0.67333,2.26333 -0.84,3.53c-0.16667,1.26667 -0.25,2.44 -0.25,3.52v0c0,1.21333 0.23333,2.16333 0.7,2.85c0.46667,0.68 1.10667,1.02 1.92,1.02v0c0.68667,0 1.32333,-0.29333 1.91,-0.88c0.58667,-0.58667 1.09667,-1.37667 1.53,-2.37c0.42667,-0.98667 0.76,-2.12 1,-3.4c0.24,-1.28 0.36,-2.61333 0.36,-4v0c0,-1.31333 -0.21,-2.31667 -0.63,-3.01c-0.42,-0.69333 -1.01,-1.04 -1.77,-1.04zM161.389,122.092v0c0,-1.29333 0.21333,-2.61333 0.64,-3.96c0.43333,-1.35333 1.09,-2.58333 1.97,-3.69c0.88667,-1.11333 2.00333,-2.02667 3.35,-2.74c1.35333,-0.72 2.93667,-1.08 4.75,-1.08v0c2.15333,0 3.84,0.58667 5.06,1.76c1.21333,1.16667 1.82,2.91 1.82,5.23v0c0,1.57333 -0.23667,3.07333 -0.71,4.5c-0.48,1.42 -1.17333,2.67333 -2.08,3.76c-0.90667,1.08667 -2.01333,1.94667 -3.32,2.58c-1.3,0.63333 -2.78667,0.95 -4.46,0.95v0c-1,0 -1.93,-0.15 -2.79,-0.45c-0.86667,-0.3 -1.61333,-0.75333 -2.24,-1.36c-0.63333,-0.60667 -1.12333,-1.36667 -1.47,-2.28c-0.34667,-0.90667 -0.52,-1.98 -0.52,-3.22zM171.489,112.662v0c-0.95333,0 -1.74667,0.36 -2.38,1.08c-0.63333,0.71333 -1.14667,1.61333 -1.54,2.7c-0.39333,1.08667 -0.67333,2.26333 -0.84,3.53c-0.16667,1.26667 -0.25,2.44 -0.25,3.52v0c0,1.21333 0.23,2.16333 0.69,2.85c0.46667,0.68 1.10667,1.02 1.92,1.02v0c0.69333,0 1.33333,-0.29333 1.92,-0.88c0.58667,-0.58667 1.09333,-1.37667 1.52,-2.37c0.43333,-0.98667 0.77,-2.12 1.01,-3.4c0.23333,-1.28 0.35,-2.61333 0.35,-4v0c0,-1.31333 -0.20667,-2.31667 -0.62,-3.01c-0.42,-0.69333 -1.01333,-1.04 -1.78,-1.04zM191.309,127.362v0c-0.66667,-1.14667 -1.19667,-2.28333 -1.59,-3.41c-0.39333,-1.12 -0.77,-2.18333 -1.13,-3.19v0l-1.18,-0.36l-1.62,8.57h-5.01l4.76,-23.98l-2.4,-0.46v-1.22c0.33333,-0.14667 0.77667,-0.29667 1.33,-0.45c0.54667,-0.15333 1.14333,-0.29 1.79,-0.41c0.64667,-0.12 1.32,-0.22333 2.02,-0.31c0.70667,-0.08 1.39333,-0.12 2.06,-0.12v0l0.76,0.39l-3.34,16.42h1.15c0.40667,-0.31333 0.82667,-0.68333 1.26,-1.11c0.42667,-0.43333 0.83,-0.86333 1.21,-1.29c0.38667,-0.43333 0.73,-0.86 1.03,-1.28c0.29333,-0.41333 0.52333,-0.76333 0.69,-1.05v0c0.02667,-0.16667 0.04667,-0.39333 0.06,-0.68c0.01333,-0.28667 0.01333,-0.58 0,-0.88c-0.01333,-0.3 -0.02667,-0.58667 -0.04,-0.86c-0.01333,-0.27333 -0.03,-0.48333 -0.05,-0.63v0c0.40667,-0.14667 0.92,-0.26 1.54,-0.34c0.62,-0.08667 1.25333,-0.13 1.9,-0.13v0c0.64667,0 1.25,0.04333 1.81,0.13c0.56,0.08 0.97333,0.19333 1.24,0.34v0c-0.31333,0.78667 -0.77333,1.56333 -1.38,2.33c-0.61333,0.76667 -1.27333,1.48333 -1.98,2.15c-0.7,0.66667 -1.39,1.27 -2.07,1.81c-0.68667,0.54 -1.24333,0.96333 -1.67,1.27v0c0.16667,0.45333 0.42333,1.02667 0.77,1.72c0.34667,0.69333 0.73333,1.41667 1.16,2.17c0.43333,0.75333 0.89,1.48333 1.37,2.19c0.47333,0.7 0.91333,1.30333 1.32,1.81v0h1.94v1.22c-0.24,0.18667 -0.54667,0.37667 -0.92,0.57c-0.36667,0.19333 -0.76667,0.36 -1.2,0.5c-0.42667,0.14667 -0.86667,0.26667 -1.32,0.36c-0.45333,0.09333 -0.89667,0.14 -1.33,0.14v0c-0.57333,0 -1.10333,-0.13 -1.59,-0.39c-0.49333,-0.26667 -0.94333,-0.78 -1.35,-1.54z"></path></g></g></svg>