<svg xmlns="http://www.w3.org/2000/svg" xmlns:xlink="http://www.w3.org/1999/xlink" viewBox="0,0,256,256" width="50px" height="50px"><g fill="none" fill-rule="nonzero" stroke="none" stroke-width="1" stroke-linecap="butt" stroke-linejoin="miter" stroke-miterlimit="10" stroke-dasharray="" stroke-dashoffset="0" font-family="none" font-weight="none" font-size="none" text-anchor="none" style="mix-blend-mode: normal"><g transform="scale(5.12,5.12)"><path d="M47,9.99v4.62l-18,25.4l-9,-9.814l-17,-5.196v-4.62z" fill="#5ccae6"></path><path d="M47,9.989v4.619l-18,25.403v-4.619z" fill="#4460b3"></path><path d="M20,25.577v4.619l9,9.815v-4.619z" fill="#6189ff"></path><path d="M20,25.577v4.619l-17,-5.196v-4.619z" fill="#66e1ff"></path><path d="M20,25.577l27,-15.588l-18,25.403z" fill="#577be6"></path></g></g><g fill="#e0f104" fill-rule="nonzero" stroke="none" stroke-width="1" stroke-linecap="butt" stroke-linejoin="miter" stroke-miterlimit="10" stroke-dasharray="" stroke-dashoffset="0" font-family="none" font-weight="none" font-size="none" text-anchor="none" style="mix-blend-mode: normal"><g><path d="M95.636,123.122l-0.28,1.56h-12.41l0.28,-1.56c0.54667,-0.27333 1.14333,-0.51 1.79,-0.71c0.64,-0.20667 1.26,-0.36333 1.86,-0.47v0l4.91,-23.19c-0.62667,-0.10667 -1.21333,-0.27 -1.76,-0.49c-0.54667,-0.22 -0.99667,-0.45333 -1.35,-0.7v0l0.33,-1.55h12.41l-0.33,1.55c-0.40667,0.30667 -0.89667,0.55333 -1.47,0.74c-0.57333,0.19333 -1.13333,0.34333 -1.68,0.45v0l-2.13,9.91h10.85l2.13,-9.91c-1.17333,-0.3 -2.06,-0.69667 -2.66,-1.19v0l0.33,-1.55h12.41l-0.33,1.55c-0.52,0.30667 -1.1,0.56 -1.74,0.76c-0.64,0.20667 -1.26,0.35 -1.86,0.43v0l-4.92,23.19c0.6,0.10667 1.16667,0.27 1.7,0.49c0.53333,0.21333 0.99,0.44333 1.37,0.69v0l-0.28,1.56h-12.41l0.28,-1.56c0.46667,-0.24667 0.97333,-0.47667 1.52,-0.69c0.54667,-0.22 1.10667,-0.38333 1.68,-0.49v0l2.21,-10.61h-10.86l-2.21,10.61c0.93333,0.18667 1.80667,0.58 2.62,1.18zM116.486,116.822v0c0,-1.48 0.24667,-2.99 0.74,-4.53c0.49333,-1.54 1.24333,-2.94667 2.25,-4.22c1.01333,-1.26667 2.29,-2.31 3.83,-3.13c1.54667,-0.82 3.35667,-1.23 5.43,-1.23v0c2.46,0 4.38667,0.67 5.78,2.01c1.38667,1.33333 2.08,3.32667 2.08,5.98v0c0,1.8 -0.27,3.51333 -0.81,5.14c-0.54667,1.62 -1.34,3.05333 -2.38,4.3c-1.04,1.24 -2.30333,2.22333 -3.79,2.95c-1.48667,0.72 -3.18667,1.08 -5.1,1.08v0c-1.14667,0 -2.21,-0.17 -3.19,-0.51c-0.98667,-0.34 -1.84,-0.86 -2.56,-1.56c-0.72667,-0.69333 -1.28667,-1.56 -1.68,-2.6c-0.4,-1.03333 -0.6,-2.26 -0.6,-3.68zM128.036,106.042v0c-1.08667,0 -1.99333,0.41 -2.72,1.23c-0.72667,0.82 -1.31333,1.85 -1.76,3.09c-0.45333,1.24667 -0.77333,2.59333 -0.96,4.04c-0.19333,1.44667 -0.29,2.78333 -0.29,4.01v0c0,1.39333 0.26667,2.48 0.8,3.26c0.53333,0.78 1.26333,1.17 2.19,1.17v0c0.79333,0 1.52333,-0.33667 2.19,-1.01c0.66667,-0.66667 1.24667,-1.56667 1.74,-2.7c0.49333,-1.13333 0.87667,-2.43 1.15,-3.89c0.27333,-1.46 0.41,-2.98333 0.41,-4.57v0c0,-1.5 -0.24,-2.64667 -0.72,-3.44c-0.48,-0.79333 -1.15667,-1.19 -2.03,-1.19zM162.446,119.852l1.76,-7.46c0.14,-0.62667 0.29,-1.30333 0.45,-2.03c0.16667,-0.72 0.25,-1.28667 0.25,-1.7v0c0,-0.51333 -0.09,-0.92 -0.27,-1.22c-0.17333,-0.3 -0.49333,-0.45 -0.96,-0.45v0c-0.46667,0 -0.94333,0.17 -1.43,0.51c-0.49333,0.34 -0.97333,0.79 -1.44,1.35c-0.46,0.56 -0.90333,1.19333 -1.33,1.9c-0.42,0.71333 -0.79667,1.43667 -1.13,2.17v0l-2.66,11.76h-5.49l2.5,-11.51c0.19333,-0.84667 0.35667,-1.66667 0.49,-2.46c0.14,-0.79333 0.21,-1.53 0.21,-2.21v0c0,-1.00667 -0.38333,-1.51 -1.15,-1.51v0c-0.38,0 -0.81667,0.17667 -1.31,0.53c-0.49333,0.35333 -0.98333,0.81 -1.47,1.37c-0.49333,0.56 -0.96,1.19333 -1.4,1.9c-0.43333,0.71333 -0.77333,1.44 -1.02,2.18v0l-2.38,11.71h-5.73l3.64,-17.57l-2.33,-0.53v-1.4c0.44,-0.21333 0.98,-0.41667 1.62,-0.61c0.64,-0.19333 1.31667,-0.35 2.03,-0.47c0.70667,-0.12667 1.43,-0.22333 2.17,-0.29c0.73333,-0.06667 1.41333,-0.1 2.04,-0.1v0l0.86,0.49l-1.59,5.98h0.16c0.41333,-0.74 0.91333,-1.49667 1.5,-2.27c0.58667,-0.78 1.24667,-1.47667 1.98,-2.09c0.74,-0.61333 1.53333,-1.12 2.38,-1.52c0.84667,-0.39333 1.70667,-0.59 2.58,-0.59v0c0.32667,0 0.66667,0.05333 1.02,0.16c0.36,0.11333 0.69667,0.31333 1.01,0.6c0.31333,0.28667 0.56333,0.67333 0.75,1.16c0.19333,0.49333 0.29,1.12333 0.29,1.89v0c0,0.38 -0.03333,0.81667 -0.1,1.31c-0.06667,0.49333 -0.15667,0.94333 -0.27,1.35v0c0.46667,-0.84667 1.01333,-1.66667 1.64,-2.46c0.62667,-0.79333 1.30333,-1.48333 2.03,-2.07c0.72,-0.58667 1.48333,-1.05667 2.29,-1.41c0.80667,-0.35333 1.64667,-0.53 2.52,-0.53v0c1.04,0 1.88667,0.32667 2.54,0.98c0.65333,0.65333 0.98,1.55333 0.98,2.7v0c0,0.88 -0.08,1.71333 -0.24,2.5c-0.16667,0.79333 -0.34333,1.62667 -0.53,2.5v0l-2.34,9.46h2.87v1.4c-0.27333,0.21333 -0.65,0.43 -1.13,0.65c-0.48,0.22 -0.99,0.41333 -1.53,0.58c-0.54667,0.16 -1.10667,0.29333 -1.68,0.4c-0.57333,0.11333 -1.10667,0.17 -1.6,0.17v0c-0.98667,0 -1.67,-0.2 -2.05,-0.6c-0.38,-0.39333 -0.57,-0.83667 -0.57,-1.33v0c0,-0.78667 0.19,-1.87667 0.57,-3.27zM189.156,119.192l0.98,1.03c-0.3,0.54 -0.73667,1.10667 -1.31,1.7c-0.57333,0.58667 -1.24333,1.11667 -2.01,1.59c-0.76667,0.48 -1.61333,0.87667 -2.54,1.19c-0.92667,0.31333 -1.89667,0.47 -2.91,0.47v0c-2.42667,0 -4.31667,-0.66333 -5.67,-1.99c-1.35333,-1.32 -2.03,-3.19667 -2.03,-5.63v0c0,-1.88 0.3,-3.65333 0.9,-5.32c0.60667,-1.66667 1.44667,-3.13667 2.52,-4.41c1.08,-1.26667 2.36333,-2.27 3.85,-3.01c1.49333,-0.73333 3.12667,-1.1 4.9,-1.1v0c1.64,0 2.99,0.37333 4.05,1.12c1.06667,0.75333 1.6,1.78667 1.6,3.1v0c0,1.85333 -0.92,3.38 -2.76,4.58c-1.84667,1.20667 -4.83,1.96 -8.95,2.26v0c-0.08667,0.38 -0.15,0.77 -0.19,1.17c-0.04,0.39333 -0.06,0.76667 -0.06,1.12v0c0,1.56 0.39667,2.75667 1.19,3.59c0.79333,0.82667 1.80333,1.24 3.03,1.24v0c0.52,0 1.04,-0.08 1.56,-0.24c0.51333,-0.16667 1.01,-0.38667 1.49,-0.66c0.48,-0.27333 0.91667,-0.56667 1.31,-0.88c0.4,-0.31333 0.75,-0.62 1.05,-0.92zM184.896,106.042v0c-0.93333,0 -1.83,0.50667 -2.69,1.52c-0.86,1.00667 -1.57667,2.71333 -2.15,5.12v0c2.02,-0.05333 3.65333,-0.50333 4.9,-1.35c1.24,-0.84667 1.86,-1.95333 1.86,-3.32v0c0,-0.54667 -0.14333,-1.01 -0.43,-1.39c-0.28667,-0.38667 -0.78333,-0.58 -1.49,-0.58z"></path></g></g></svg>