<svg xmlns="http://www.w3.org/2000/svg" xmlns:xlink="http://www.w3.org/1999/xlink" viewBox="0,0,256,256" width="50px" height="50px"><g fill="none" fill-rule="nonzero" stroke="none" stroke-width="1" stroke-linecap="butt" stroke-linejoin="miter" stroke-miterlimit="10" stroke-dasharray="" stroke-dashoffset="0" font-family="none" font-weight="none" font-size="none" text-anchor="none" style="mix-blend-mode: normal"><g transform="scale(5.12,5.12)"><path d="M47,9.99v4.62l-18,25.4l-9,-9.814l-17,-5.196v-4.62z" fill="#191b1c"></path><path d="M47,9.989v4.619l-18,25.403v-4.619z" fill="#070910"></path><path d="M20,25.577v4.619l9,9.815v-4.619z" fill="#26272a"></path><path d="M20,25.577v4.619l-17,-5.196v-4.619z" fill="#3c4647"></path><path d="M20,25.577l27,-15.588l-18,25.403z" fill="#2b2f3b"></path></g></g><g fill="#fffc10" fill-rule="nonzero" stroke="none" stroke-width="1" stroke-linecap="butt" stroke-linejoin="miter" stroke-miterlimit="10" stroke-dasharray="" stroke-dashoffset="0" font-family="none" font-weight="none" font-size="none" text-anchor="none" style="mix-blend-mode: normal"><g><path d="M60.87829,116.591l-1.72,8.2c0.71333,0.10667 1.40333,0.26333 2.07,0.47c0.67333,0.2 1.26667,0.43667 1.78,0.71v0l-0.28,1.56h-13.64l0.28,-1.56c1.20667,-0.57333 2.42333,-0.96667 3.65,-1.18v0l4.91,-23.19c-0.6,-0.10667 -1.16,-0.26333 -1.68,-0.47c-0.51333,-0.20667 -0.99,-0.44667 -1.43,-0.72v0l0.33,-1.55h5.16c1.09333,0 2.35667,-0.05667 3.79,-0.17c1.43333,-0.10667 2.73667,-0.16 3.91,-0.16v0c1.42,0 2.73667,0.12333 3.95,0.37c1.22,0.24667 2.26,0.63667 3.12,1.17c0.86,0.53333 1.53333,1.23667 2.02,2.11c0.49333,0.87333 0.74,1.93667 0.74,3.19v0c0,1.61333 -0.3,3.11 -0.9,4.49c-0.6,1.37333 -1.47333,2.56667 -2.62,3.58c-1.14667,1.01333 -2.55333,1.81333 -4.22,2.4c-1.66667,0.58667 -3.55,0.88 -5.65,0.88v0c-0.14,0 -0.36667,0 -0.68,0c-0.31333,0 -0.65333,-0.00667 -1.02,-0.02c-0.37333,-0.01333 -0.73,-0.02667 -1.07,-0.04c-0.34,-0.02 -0.60667,-0.04333 -0.8,-0.07zM66.48829,101.191v0c-0.54,0 -0.99667,0.02667 -1.37,0.08c-0.36667,0.06 -0.7,0.11667 -1,0.17v0l-2.66,12.45c0.24667,0.05333 0.61333,0.09333 1.1,0.12c0.49333,0.02667 0.89,0.04 1.19,0.04v0c1.17333,0 2.21,-0.21 3.11,-0.63c0.90667,-0.42667 1.66667,-1.02667 2.28,-1.8c0.61333,-0.78 1.08333,-1.69667 1.41,-2.75c0.32667,-1.04667 0.49,-2.21333 0.49,-3.5v0c0,-0.62667 -0.07333,-1.2 -0.22,-1.72c-0.15333,-0.52 -0.4,-0.96333 -0.74,-1.33c-0.34,-0.36667 -0.80333,-0.64667 -1.39,-0.84c-0.58667,-0.19333 -1.32,-0.29 -2.2,-0.29zM92.99829,113.361l-3.61,-2.42c-0.52,0.22 -1.1,0.71333 -1.74,1.48c-0.64,0.76 -1.18,1.72667 -1.62,2.9v0l-2.62,12.21h-5.73l3.64,-17.57l-2.33,-0.53v-1.4c0.46,-0.21333 1,-0.41 1.62,-0.59c0.61333,-0.18 1.26667,-0.33 1.96,-0.45c0.7,-0.12667 1.41667,-0.22333 2.15,-0.29c0.74,-0.06667 1.45,-0.11333 2.13,-0.14v0l0.82,0.49l-1.06,5.08h0.16c0.82,-1.58667 1.76333,-2.91 2.83,-3.97c1.06,-1.06667 2.3,-1.6 3.72,-1.6v0c0.38667,0 0.77,0.03333 1.15,0.1c0.38,0.06667 0.73667,0.19667 1.07,0.39v0c0.05333,0.57333 0.00333,1.19333 -0.15,1.86c-0.14667,0.67333 -0.34333,1.31 -0.59,1.91c-0.24667,0.6 -0.53333,1.13333 -0.86,1.6c-0.32667,0.46 -0.64,0.77333 -0.94,0.94zM95.53829,119.671v0c0,-1.48 0.24333,-2.99 0.73,-4.53c0.49333,-1.54 1.24667,-2.94667 2.26,-4.22c1.00667,-1.26667 2.28333,-2.31 3.83,-3.13c1.54,-0.82 3.34667,-1.23 5.42,-1.23v0c2.46,0 4.38667,0.67 5.78,2.01c1.39333,1.33333 2.09,3.32667 2.09,5.98v0c0,1.8 -0.27333,3.51333 -0.82,5.14c-0.54667,1.62 -1.34,3.05333 -2.38,4.3c-1.03333,1.24 -2.29667,2.22333 -3.79,2.95c-1.48667,0.72 -3.18667,1.08 -5.1,1.08v0c-1.14667,0 -2.21,-0.17 -3.19,-0.51c-0.98667,-0.34 -1.84,-0.86 -2.56,-1.56c-0.72667,-0.69333 -1.28667,-1.56 -1.68,-2.6c-0.39333,-1.03333 -0.59,-2.26 -0.59,-3.68zM107.08829,108.891v0c-1.09333,0 -2.00333,0.41 -2.73,1.23c-0.72,0.82 -1.30667,1.85 -1.76,3.09c-0.44667,1.24667 -0.76667,2.59333 -0.96,4.04c-0.19333,1.44667 -0.29,2.78333 -0.29,4.01v0c0,1.39333 0.26667,2.48 0.8,3.26c0.53333,0.78 1.26333,1.17 2.19,1.17v0c0.79333,0 1.52333,-0.33667 2.19,-1.01c0.67333,-0.66667 1.25333,-1.56667 1.74,-2.7c0.49333,-1.13333 0.87667,-2.43 1.15,-3.89c0.27333,-1.46 0.41,-2.98333 0.41,-4.57v0c0,-1.5 -0.24,-2.64667 -0.72,-3.44c-0.47333,-0.79333 -1.14667,-1.19 -2.02,-1.19zM118.34829,126.551l3.36,-16.59l-2.42,-0.53v-1.4c0.41333,-0.18667 0.93333,-0.37 1.56,-0.55c0.62667,-0.18 1.30333,-0.33667 2.03,-0.47c0.72,-0.14 1.45,-0.25 2.19,-0.33c0.73333,-0.08 1.43,-0.12 2.09,-0.12v0l0.82,0.49l-3.77,18.72c-0.41333,1.94 -1.03,3.55 -1.85,4.83c-0.81333,1.28667 -1.7,2.32333 -2.66,3.11c-0.95333,0.79333 -1.92333,1.38333 -2.91,1.77c-0.98,0.38 -1.85333,0.62333 -2.62,0.73v0l-0.65,-1.27c0.32667,-0.16 0.70667,-0.41667 1.14,-0.77c0.44,-0.36 0.87667,-0.86667 1.31,-1.52c0.44,-0.65333 0.87,-1.48 1.29,-2.48c0.42667,-0.99333 0.79,-2.2 1.09,-3.62zM122.64829,100.211v0c0,-0.92667 0.31333,-1.65 0.94,-2.17c0.63333,-0.52 1.42667,-0.78 2.38,-0.78v0c1.04,0 1.86667,0.26 2.48,0.78c0.61333,0.52 0.92,1.24333 0.92,2.17v0c0,0.87333 -0.30667,1.57 -0.92,2.09c-0.61333,0.52 -1.44,0.78 -2.48,0.78v0c-0.95333,0 -1.74667,-0.26 -2.38,-0.78c-0.62667,-0.52 -0.94,-1.21667 -0.94,-2.09zM145.66829,122.041l0.98,1.03c-0.3,0.54 -0.73667,1.10667 -1.31,1.7c-0.57333,0.58667 -1.24,1.11667 -2,1.59c-0.76667,0.48 -1.61333,0.87667 -2.54,1.19c-0.93333,0.31333 -1.90333,0.47 -2.91,0.47v0c-2.43333,0 -4.32333,-0.66333 -5.67,-1.99c-1.35333,-1.32 -2.03,-3.19667 -2.03,-5.63v0c0,-1.88 0.3,-3.65333 0.9,-5.32c0.6,-1.66667 1.44,-3.13667 2.52,-4.41c1.08,-1.26667 2.36333,-2.27 3.85,-3.01c1.48667,-0.73333 3.11667,-1.1 4.89,-1.1v0c1.64,0 2.99333,0.37333 4.06,1.12c1.06667,0.75333 1.6,1.78667 1.6,3.1v0c0,1.85333 -0.92333,3.38 -2.77,4.58c-1.84,1.20667 -4.82333,1.96 -8.95,2.26v0c-0.08,0.38 -0.14,0.77 -0.18,1.17c-0.04,0.39333 -0.06,0.76667 -0.06,1.12v0c0,1.56 0.39333,2.75667 1.18,3.59c0.79333,0.82667 1.80333,1.24 3.03,1.24v0c0.52,0 1.04,-0.08 1.56,-0.24c0.52,-0.16667 1.02,-0.38667 1.5,-0.66c0.47333,-0.27333 0.91,-0.56667 1.31,-0.88c0.39333,-0.31333 0.74,-0.62 1.04,-0.92zM141.40829,108.891v0c-0.92667,0 -1.82,0.50667 -2.68,1.52c-0.86,1.00667 -1.57667,2.71333 -2.15,5.12v0c2.02,-0.05333 3.65,-0.50333 4.89,-1.35c1.24667,-0.84667 1.87,-1.95333 1.87,-3.32v0c0,-0.54667 -0.14333,-1.01 -0.43,-1.39c-0.28667,-0.38667 -0.78667,-0.58 -1.5,-0.58zM164.34829,122.041l0.94,1.03c-0.35333,0.57333 -0.81667,1.16 -1.39,1.76c-0.57333,0.6 -1.23667,1.13 -1.99,1.59c-0.75333,0.46667 -1.58,0.85 -2.48,1.15c-0.9,0.3 -1.85333,0.45 -2.86,0.45v0c-2.16,0 -3.87333,-0.64 -5.14,-1.92c-1.27333,-1.28667 -1.91,-3.07667 -1.91,-5.37v0c0,-1.91333 0.29333,-3.73 0.88,-5.45c0.58667,-1.72 1.41333,-3.22667 2.48,-4.52c1.06667,-1.3 2.35667,-2.32667 3.87,-3.08c1.51333,-0.74667 3.2,-1.12 5.06,-1.12v0c1.22667,0 2.29667,0.13 3.21,0.39c0.92,0.26 1.53,0.56667 1.83,0.92v0c0.02667,0.3 -0.02333,0.67667 -0.15,1.13c-0.12,0.44667 -0.30333,0.89667 -0.55,1.35c-0.24667,0.44667 -0.54,0.87 -0.88,1.27c-0.34,0.39333 -0.68667,0.67333 -1.04,0.84v0l-2.5,-3.57c-0.74,0 -1.48667,0.25333 -2.24,0.76c-0.74667,0.50667 -1.42,1.23 -2.02,2.17c-0.6,0.94 -1.09333,2.07333 -1.48,3.4c-0.38,1.32667 -0.57,2.82333 -0.57,4.49v0c0,1.66667 0.34,2.88667 1.02,3.66c0.68667,0.78 1.60333,1.17 2.75,1.17v0c0.54667,0 1.07,-0.09 1.57,-0.27c0.50667,-0.17333 0.98,-0.38333 1.42,-0.63c0.43333,-0.24667 0.83667,-0.51333 1.21,-0.8c0.36667,-0.28667 0.68667,-0.55333 0.96,-0.8zM168.48829,109.631v-1.6c0.51333,-0.32667 1.08667,-0.60667 1.72,-0.84c0.62667,-0.22667 1.24,-0.41 1.84,-0.55v0l0.65,-3.11c0.19333,-0.16667 0.49667,-0.32333 0.91,-0.47c0.40667,-0.15333 0.85667,-0.29 1.35,-0.41c0.48667,-0.12667 0.98333,-0.24333 1.49,-0.35c0.50667,-0.11333 0.96333,-0.19667 1.37,-0.25v0l0.86,0.49l-0.98,4.51h4.79c0.06,0.32667 0.04,0.75667 -0.06,1.29c-0.09333,0.53333 -0.25,0.96333 -0.47,1.29v0h-4.79l-2.38,10.61c-0.10667,0.52 -0.18667,0.97667 -0.24,1.37c-0.05333,0.4 -0.08,0.76333 -0.08,1.09v0c0,0.70667 0.17667,1.22333 0.53,1.55c0.35333,0.32667 0.83,0.49 1.43,0.49v0c0.68667,0 1.33,-0.08 1.93,-0.24c0.6,-0.16667 1.17333,-0.4 1.72,-0.7v0l0.53,1.07c-0.32667,0.35333 -0.76333,0.71333 -1.31,1.08c-0.54667,0.37333 -1.16,0.71667 -1.84,1.03c-0.68667,0.31333 -1.42667,0.56333 -2.22,0.75c-0.78667,0.19333 -1.59,0.29 -2.41,0.29v0c-1.42,0 -2.48667,-0.32667 -3.2,-0.98c-0.70667,-0.65333 -1.06,-1.55333 -1.06,-2.7v0c0,-0.63333 0.05333,-1.30333 0.16,-2.01c0.10667,-0.71333 0.21667,-1.31333 0.33,-1.8v0l2.37,-10.9zM191.04829,123.021v0c0,-0.6 -0.16333,-1.13667 -0.49,-1.61c-0.32667,-0.48 -0.73667,-0.95333 -1.23,-1.42c-0.48667,-0.46 -1.02333,-0.91667 -1.61,-1.37c-0.58667,-0.44667 -1.12667,-0.95667 -1.62,-1.53c-0.49333,-0.57333 -0.90333,-1.21 -1.23,-1.91c-0.32667,-0.69333 -0.49,-1.50667 -0.49,-2.44v0c0,-2.07333 0.74333,-3.62333 2.23,-4.65c1.48667,-1.02 3.51333,-1.53 6.08,-1.53v0c0.44,0 0.92667,0.02 1.46,0.06c0.53333,0.04 1.07,0.11667 1.61,0.23c0.54667,0.10667 1.07333,0.23333 1.58,0.38c0.50667,0.15333 0.96333,0.35333 1.37,0.6v0c0.02667,0.3 0.00667,0.69 -0.06,1.17c-0.06667,0.47333 -0.19,0.95 -0.37,1.43c-0.17333,0.48 -0.40333,0.91667 -0.69,1.31c-0.28667,0.39333 -0.63667,0.66 -1.05,0.8v0l-3.27,-3.65c-0.87333,0 -1.60667,0.18 -2.2,0.54c-0.58667,0.35333 -0.88,0.98 -0.88,1.88v0c0,0.6 0.17333,1.14667 0.52,1.64c0.34,0.49333 0.75667,0.96333 1.25,1.41c0.48667,0.45333 1.03,0.91 1.63,1.37c0.6,0.46667 1.14667,0.98 1.64,1.54c0.49333,0.56 0.91,1.19333 1.25,1.9c0.34,0.71333 0.51,1.53333 0.51,2.46v0c0,1.04 -0.23,1.95667 -0.69,2.75c-0.46667,0.78667 -1.10333,1.45333 -1.91,2c-0.80667,0.54667 -1.77,0.95667 -2.89,1.23c-1.11333,0.27333 -2.32667,0.41 -3.64,0.41v0c-1.39333,0 -2.64333,-0.15667 -3.75,-0.47c-1.10667,-0.31333 -1.93333,-0.66 -2.48,-1.04v0c-0.02667,-0.87333 0.13,-1.73333 0.47,-2.58c0.34667,-0.84667 0.84667,-1.50333 1.5,-1.97v0l3.97,3.73c0.9,0 1.70667,-0.22 2.42,-0.66c0.70667,-0.43333 1.06,-1.10333 1.06,-2.01z"></path></g></g></svg>