<svg xmlns="http://www.w3.org/2000/svg" xmlns:xlink="http://www.w3.org/1999/xlink" viewBox="0,0,256,256" width="50px" height="50px"><g fill="none" fill-rule="nonzero" stroke="none" stroke-width="1" stroke-linecap="butt" stroke-linejoin="miter" stroke-miterlimit="10" stroke-dasharray="" stroke-dashoffset="0" font-family="none" font-weight="none" font-size="none" text-anchor="none" style="mix-blend-mode: normal"><g transform="scale(5.12,5.12)"><path d="M47,9.99v4.62l-18,25.4l-9,-9.814l-17,-5.196v-4.62z" fill="#505455"></path><path d="M47,9.989v4.619l-18,25.403v-4.619z" fill="#010102"></path><path d="M20,25.577v4.619l9,9.815v-4.619z" fill="#4f515b"></path><path d="M20,25.577v4.619l-17,-5.196v-4.619z" fill="#1b1d1e"></path><path d="M20,25.577l27,-15.588l-18,25.403z" fill="#3d3f46"></path></g></g><g fill="#fffc10" fill-rule="nonzero" stroke="none" stroke-width="1" stroke-linecap="butt" stroke-linejoin="miter" stroke-miterlimit="10" stroke-dasharray="" stroke-dashoffset="0" font-family="none" font-weight="none" font-size="none" text-anchor="none" style="mix-blend-mode: normal"><g><path d="M49.93919,118.624l-1.94,9.21c0.8,0.12667 1.57667,0.30333 2.33,0.53c0.75333,0.23333 1.42,0.50333 2,0.81v0l-0.32,1.75h-15.35l0.33,-1.75c1.34667,-0.64667 2.71333,-1.09333 4.1,-1.34v0l5.53,-26.08c-0.68,-0.12 -1.31,-0.29667 -1.89,-0.53c-0.58667,-0.22667 -1.12333,-0.49333 -1.61,-0.8v0l0.36,-1.76h5.81c1.22667,0 2.64667,-0.06 4.26,-0.18c1.61333,-0.12 3.08,-0.18 4.4,-0.18v0c1.6,0 3.08333,0.13667 4.45,0.41c1.36667,0.27333 2.53333,0.71 3.5,1.31c0.96667,0.6 1.72667,1.39333 2.28,2.38c0.55333,0.98 0.83,2.17667 0.83,3.59v0c0,1.81333 -0.33667,3.49667 -1.01,5.05c-0.68,1.54667 -1.66333,2.89 -2.95,4.03c-1.29333,1.13333 -2.87667,2.03 -4.75,2.69c-1.87333,0.66 -3.99333,0.99 -6.36,0.99v0c-0.15333,0 -0.40667,0 -0.76,0c-0.35333,0 -0.73667,-0.00667 -1.15,-0.02c-0.41333,-0.01333 -0.81333,-0.02667 -1.2,-0.04c-0.38,-0.02 -0.67667,-0.04333 -0.89,-0.07zM56.24919,101.294v0c-0.61333,0 -1.13,0.03 -1.55,0.09c-0.41333,0.06 -0.78667,0.12333 -1.12,0.19v0l-3,14.01c0.27333,0.06 0.68667,0.10333 1.24,0.13c0.55333,0.03333 1,0.05 1.34,0.05v0c1.32,0 2.48667,-0.23667 3.5,-0.71c1.01333,-0.48 1.86667,-1.15667 2.56,-2.03c0.69333,-0.88 1.22333,-1.91 1.59,-3.09c0.36667,-1.18 0.55,-2.49333 0.55,-3.94v0c0,-0.70667 -0.08333,-1.35 -0.25,-1.93c-0.16667,-0.58667 -0.44333,-1.08667 -0.83,-1.5c-0.38667,-0.41333 -0.91,-0.73 -1.57,-0.95c-0.66,-0.21333 -1.48,-0.32 -2.46,-0.32zM86.05919,114.984l-4.05,-2.72c-0.58667,0.24667 -1.24,0.8 -1.96,1.66c-0.72,0.86 -1.32667,1.95 -1.82,3.27v0l-2.95,13.73h-6.45l4.1,-19.77l-2.63,-0.6v-1.56c0.52667,-0.24667 1.13333,-0.47 1.82,-0.67c0.69333,-0.2 1.43,-0.37 2.21,-0.51c0.78667,-0.14 1.59333,-0.24667 2.42,-0.32c0.83333,-0.08 1.63333,-0.13333 2.4,-0.16v0l0.92,0.55l-1.2,5.71h0.19c0.92,-1.78 1.98,-3.27 3.18,-4.47c1.19333,-1.19333 2.59,-1.79 4.19,-1.79v0c0.43333,0 0.86333,0.03667 1.29,0.11c0.43333,0.08 0.83333,0.22667 1.2,0.44v0c0.06,0.64667 0.00667,1.34667 -0.16,2.1c-0.17333,0.75333 -0.39667,1.46667 -0.67,2.14c-0.28,0.67333 -0.60333,1.27333 -0.97,1.8c-0.36667,0.52 -0.72,0.87333 -1.06,1.06zM88.91919,122.074v0c0,-1.66 0.27667,-3.35667 0.83,-5.09c0.55333,-1.73333 1.39667,-3.31667 2.53,-4.75c1.14,-1.42667 2.57667,-2.6 4.31,-3.52c1.73333,-0.92 3.77,-1.38 6.11,-1.38v0c2.76,0 4.92333,0.75 6.49,2.25c1.56667,1.50667 2.35,3.75 2.35,6.73v0c0,2.02667 -0.30667,3.95667 -0.92,5.79c-0.61333,1.82667 -1.50333,3.43667 -2.67,4.83c-1.16667,1.4 -2.58667,2.50667 -4.26,3.32c-1.67333,0.81333 -3.58667,1.22 -5.74,1.22v0c-1.28667,0 -2.48333,-0.19 -3.59,-0.57c-1.10667,-0.38667 -2.06667,-0.97 -2.88,-1.75c-0.81333,-0.78667 -1.44333,-1.76333 -1.89,-2.93c-0.44667,-1.16667 -0.67,-2.55 -0.67,-4.15zM101.90919,109.954v0c-1.22667,0 -2.24667,0.46333 -3.06,1.39c-0.81333,0.92 -1.47333,2.08 -1.98,3.48c-0.50667,1.39333 -0.87,2.90333 -1.09,4.53c-0.21333,1.63333 -0.32,3.14 -0.32,4.52v0c0,1.56667 0.3,2.78667 0.9,3.66c0.6,0.88 1.42333,1.32 2.47,1.32v0c0.88667,0 1.70667,-0.37667 2.46,-1.13c0.75333,-0.75333 1.40667,-1.76667 1.96,-3.04c0.55333,-1.28 0.98333,-2.74 1.29,-4.38c0.30667,-1.64667 0.46,-3.36 0.46,-5.14v0c0,-1.68667 -0.27,-2.97667 -0.81,-3.87c-0.53333,-0.89333 -1.29333,-1.34 -2.28,-1.34zM114.58919,129.814l3.77,-18.66l-2.71,-0.6v-1.56c0.46,-0.22 1.04333,-0.43 1.75,-0.63c0.70667,-0.2 1.46667,-0.37667 2.28,-0.53c0.81333,-0.15333 1.63333,-0.27333 2.46,-0.36c0.83333,-0.09333 1.61667,-0.14 2.35,-0.14v0l0.92,0.55l-4.24,21.06c-0.46,2.18 -1.15,3.99333 -2.07,5.44c-0.92,1.44 -1.91667,2.60667 -2.99,3.5c-1.08,0.88667 -2.17333,1.54667 -3.28,1.98c-1.1,0.42667 -2.08,0.70333 -2.94,0.83v0l-0.74,-1.43c0.36667,-0.18667 0.79667,-0.48 1.29,-0.88c0.49333,-0.39333 0.98333,-0.96 1.47,-1.7c0.49333,-0.74 0.97667,-1.67 1.45,-2.79c0.48,-1.12 0.89,-2.48 1.23,-4.08zM119.41919,100.184v0c0,-1.04 0.35333,-1.85333 1.06,-2.44c0.70667,-0.58 1.6,-0.87 2.68,-0.87v0c1.16667,0 2.09333,0.29 2.78,0.87c0.69333,0.58667 1.04,1.4 1.04,2.44v0c0,0.98667 -0.34667,1.77 -1.04,2.35c-0.68667,0.58667 -1.61333,0.88 -2.78,0.88v0c-1.08,0 -1.97333,-0.29333 -2.68,-0.88c-0.70667,-0.58 -1.06,-1.36333 -1.06,-2.35zM145.31919,124.754l1.11,1.15c-0.34,0.61333 -0.83333,1.25 -1.48,1.91c-0.64667,0.66 -1.4,1.26 -2.26,1.8c-0.86,0.53333 -1.81,0.97667 -2.85,1.33c-1.04667,0.35333 -2.13667,0.53 -3.27,0.53v0c-2.74,0 -4.87,-0.74333 -6.39,-2.23c-1.52,-1.49333 -2.28,-3.60667 -2.28,-6.34v0c0,-2.12 0.34,-4.11667 1.02,-5.99c0.67333,-1.87333 1.61667,-3.52333 2.83,-4.95c1.21333,-1.42667 2.65667,-2.55667 4.33,-3.39c1.67333,-0.82667 3.51,-1.24 5.51,-1.24v0c1.84,0 3.36,0.42 4.56,1.26c1.2,0.84667 1.8,2.00667 1.8,3.48v0c0,2.09333 -1.03667,3.81333 -3.11,5.16c-2.07333,1.35333 -5.43,2.2 -10.07,2.54v0c-0.09333,0.42667 -0.16333,0.86333 -0.21,1.31c-0.04667,0.44667 -0.07,0.87 -0.07,1.27v0c0,1.75333 0.44667,3.09667 1.34,4.03c0.88667,0.94 2.02333,1.41 3.41,1.41v0c0.58,0 1.16333,-0.09333 1.75,-0.28c0.58,-0.18667 1.14,-0.43333 1.68,-0.74c0.54,-0.30667 1.03333,-0.63667 1.48,-0.99c0.44,-0.35333 0.83,-0.69667 1.17,-1.03zM140.52919,109.954v0c-1.04667,0 -2.05333,0.57 -3.02,1.71c-0.96667,1.13333 -1.77333,3.05333 -2.42,5.76v0c2.27333,-0.06 4.11,-0.56667 5.51,-1.52c1.39333,-0.95333 2.09,-2.19667 2.09,-3.73v0c0,-0.62 -0.16,-1.14333 -0.48,-1.57c-0.32,-0.43333 -0.88,-0.65 -1.68,-0.65zM166.32919,124.754l1.06,1.15c-0.4,0.64 -0.92,1.3 -1.56,1.98c-0.64667,0.67333 -1.39333,1.27333 -2.24,1.8c-0.84667,0.52 -1.77667,0.95 -2.79,1.29c-1.01333,0.33333 -2.08667,0.5 -3.22,0.5v0c-2.42667,0 -4.35667,-0.72 -5.79,-2.16c-1.42667,-1.44667 -2.14,-3.46 -2.14,-6.04v0c0,-2.14667 0.33,-4.19 0.99,-6.13c0.66,-1.93333 1.59,-3.63 2.79,-5.09c1.2,-1.46 2.65333,-2.61333 4.36,-3.46c1.7,-0.84 3.59667,-1.26 5.69,-1.26v0c1.38,0 2.58333,0.14333 3.61,0.43c1.03333,0.29333 1.71667,0.64 2.05,1.04v0c0.03333,0.34 -0.02,0.76333 -0.16,1.27c-0.13333,0.50667 -0.34,1.01333 -0.62,1.52c-0.27333,0.50667 -0.60333,0.98333 -0.99,1.43c-0.38667,0.44667 -0.78,0.76 -1.18,0.94v0l-2.81,-4.01c-0.82667,0 -1.66333,0.28667 -2.51,0.86c-0.84,0.56667 -1.6,1.38 -2.28,2.44c-0.67333,1.06 -1.22667,2.33333 -1.66,3.82c-0.42667,1.49333 -0.64,3.17667 -0.64,5.05v0c0,1.87333 0.38333,3.24667 1.15,4.12c0.76667,0.88 1.79667,1.32 3.09,1.32v0c0.61333,0 1.20333,-0.1 1.77,-0.3c0.56667,-0.2 1.09667,-0.44 1.59,-0.72c0.49333,-0.27333 0.94667,-0.57333 1.36,-0.9c0.41333,-0.32 0.77333,-0.61667 1.08,-0.89zM170.98919,110.784v-1.79c0.58,-0.37333 1.22333,-0.69 1.93,-0.95c0.70667,-0.26 1.4,-0.46667 2.08,-0.62v0l0.73,-3.5c0.22,-0.18667 0.56,-0.36333 1.02,-0.53c0.46,-0.17333 0.96667,-0.32667 1.52,-0.46c0.55333,-0.14 1.11333,-0.27333 1.68,-0.4c0.56667,-0.12 1.08,-0.21 1.54,-0.27v0l0.97,0.55l-1.1,5.07h5.39c0.06,0.36667 0.03667,0.85 -0.07,1.45c-0.10667,0.6 -0.28333,1.08333 -0.53,1.45v0h-5.39l-2.68,11.94c-0.12,0.58 -0.21,1.09333 -0.27,1.54c-0.06667,0.44667 -0.1,0.85333 -0.1,1.22v0c0,0.8 0.2,1.38333 0.6,1.75c0.4,0.37333 0.94,0.56 1.62,0.56v0c0.76667,0 1.48667,-0.09333 2.16,-0.28c0.68,-0.18667 1.32667,-0.44667 1.94,-0.78v0l0.6,1.19c-0.37333,0.4 -0.86667,0.81 -1.48,1.23c-0.61333,0.41333 -1.30333,0.79667 -2.07,1.15c-0.76667,0.35333 -1.59667,0.63667 -2.49,0.85c-0.89333,0.21333 -1.8,0.32 -2.72,0.32v0c-1.59333,0 -2.79,-0.36667 -3.59,-1.1c-0.8,-0.74 -1.2,-1.75333 -1.2,-3.04v0c0,-0.70667 0.06,-1.46 0.18,-2.26c0.12667,-0.8 0.25,-1.47667 0.37,-2.03v0l2.68,-12.26zM196.37919,125.854v0c0,-0.67333 -0.18667,-1.28 -0.56,-1.82c-0.36667,-0.54 -0.82667,-1.07 -1.38,-1.59c-0.55333,-0.52 -1.16,-1.03333 -1.82,-1.54c-0.66,-0.50667 -1.26667,-1.08333 -1.82,-1.73c-0.55333,-0.64667 -1.01333,-1.36 -1.38,-2.14c-0.36667,-0.78667 -0.55,-1.7 -0.55,-2.74v0c0,-2.34 0.83667,-4.08333 2.51,-5.23c1.67333,-1.15333 3.95333,-1.73 6.84,-1.73v0c0.49333,0 1.04,0.02333 1.64,0.07c0.59333,0.04667 1.2,0.13 1.82,0.25c0.61333,0.12 1.20333,0.26667 1.77,0.44c0.56667,0.16667 1.08,0.39 1.54,0.67v0c0.03333,0.33333 0.01333,0.77 -0.06,1.31c-0.08,0.54 -0.22,1.07667 -0.42,1.61c-0.2,0.54 -0.46,1.03333 -0.78,1.48c-0.32667,0.44 -0.72,0.73667 -1.18,0.89v0l-3.68,-4.1c-0.98667,0 -1.81,0.2 -2.47,0.6c-0.66,0.4 -0.99,1.10667 -0.99,2.12v0c0,0.68 0.19333,1.29667 0.58,1.85c0.38,0.54667 0.84667,1.07667 1.4,1.59c0.55333,0.50667 1.16667,1.02 1.84,1.54c0.68,0.52 1.29667,1.09667 1.85,1.73c0.55333,0.62667 1.02,1.34 1.4,2.14c0.38667,0.8 0.58,1.72 0.58,2.76v0c0,1.17333 -0.26,2.20333 -0.78,3.09c-0.52667,0.89333 -1.24333,1.64667 -2.15,2.26c-0.90667,0.61333 -1.99,1.07333 -3.25,1.38c-1.26,0.30667 -2.62667,0.46 -4.1,0.46v0c-1.56667,0 -2.97,-0.17667 -4.21,-0.53c-1.24667,-0.35333 -2.17667,-0.74333 -2.79,-1.17v0c-0.03333,-0.98667 0.14333,-1.95667 0.53,-2.91c0.38,-0.94667 0.94,-1.68333 1.68,-2.21v0l4.47,4.2c1.01333,0 1.92,-0.24667 2.72,-0.74c0.8,-0.49333 1.2,-1.24667 1.2,-2.26z"></path></g></g></svg>