<?xml version="1.0" encoding="utf-8"?>
<!-- Generator: Adobe Illustrator 14.0.0, SVG Export Plug-In . SVG Version: 6.00 Build 43363)  -->
<!DOCTYPE svg PUBLIC "-//W3C//DTD SVG 1.1//EN" "http://www.w3.org/Graphics/SVG/1.1/DTD/svg11.dtd" [
	<!ENTITY ns_extend "http://ns.adobe.com/Extensibility/1.0/">
	<!ENTITY ns_ai "http://ns.adobe.com/AdobeIllustrator/10.0/">
	<!ENTITY ns_graphs "http://ns.adobe.com/Graphs/1.0/">
	<!ENTITY ns_vars "http://ns.adobe.com/Variables/1.0/">
	<!ENTITY ns_imrep "http://ns.adobe.com/ImageReplacement/1.0/">
	<!ENTITY ns_sfw "http://ns.adobe.com/SaveForWeb/1.0/">
	<!ENTITY ns_custom "http://ns.adobe.com/GenericCustomNamespace/1.0/">
	<!ENTITY ns_adobe_xpath "http://ns.adobe.com/XPath/1.0/">
]>
<svg version="1.1" id="Calque_1" xmlns:x="&ns_extend;" xmlns:i="&ns_ai;" xmlns:graph="&ns_graphs;"
	 xmlns="http://www.w3.org/2000/svg" xmlns:xlink="http://www.w3.org/1999/xlink" x="0px" y="0px" width="1280px" height="650px"
	 viewBox="0 0 1280 650" enable-background="new 0 0 1280 650" xml:space="preserve">
<metadata>
	<sfw  xmlns="&ns_sfw;">
		<slices></slices>
		<sliceSourceBounds  x="-306.662" y="-73" width="1257.658" height="624" bottomLeftOrigin="true"></sliceSourceBounds>
	</sfw>
</metadata>
<rect x="13.338" y="15" fill="#FFFFFF" width="1257.658" height="624"/>
<g>
	<g>
		<path fill="#162981" d="M1204.269,281.56c0,70.127-53.876,126.979-120.335,126.979H198.609
			c-66.459,0-120.335-56.852-120.335-126.979l0,0c0-70.127,53.875-126.978,120.335-126.978h885.325
			C1150.393,154.582,1204.269,211.433,1204.269,281.56L1204.269,281.56z"/>
		<path fill="#162A82" d="M1203.424,281.991c0,69.721-53.795,126.244-120.154,126.244H199.273
			c-66.359,0-120.154-56.522-120.154-126.244l0,0c0-69.721,53.795-126.243,120.154-126.243h883.997
			C1149.629,155.748,1203.424,212.27,1203.424,281.991L1203.424,281.991z"/>
		<path fill="#162B82" d="M1202.579,282.421c0,69.315-53.715,125.508-119.974,125.508H199.938
			c-66.26,0-119.974-56.193-119.974-125.508l0,0c0-69.314,53.714-125.507,119.974-125.507h882.668
			C1148.864,156.915,1202.579,213.107,1202.579,282.421L1202.579,282.421z"/>
		<path fill="#152C83" d="M1201.734,282.852c0,68.909-53.634,124.772-119.794,124.772H200.602
			c-66.16,0-119.793-55.863-119.793-124.772l0,0c0-68.908,53.633-124.771,119.793-124.771h881.339
			C1148.101,158.081,1201.734,213.944,1201.734,282.852L1201.734,282.852z"/>
		<path fill="#152D83" d="M1200.89,283.283c0,68.502-53.553,124.037-119.613,124.037h-880.01
			c-66.061,0-119.613-55.534-119.613-124.037l0,0c0-68.502,53.552-124.036,119.613-124.036h880.01
			C1147.337,159.247,1200.89,214.781,1200.89,283.283L1200.89,283.283z"/>
		<path fill="#152E84" d="M1200.044,283.713c0,68.096-53.472,123.301-119.432,123.301H201.93
			c-65.961,0-119.432-55.205-119.432-123.301l0,0c0-68.096,53.471-123.3,119.432-123.3h878.682
			C1146.572,160.413,1200.044,215.618,1200.044,283.713L1200.044,283.713z"/>
		<path fill="#152F84" d="M1199.199,284.144c0,67.69-53.391,122.566-119.251,122.566H202.594
			c-65.861,0-119.251-54.876-119.251-122.566l0,0c0-67.69,53.391-122.565,119.251-122.565h877.354
			C1145.809,161.579,1199.199,216.454,1199.199,284.144L1199.199,284.144z"/>
		<path fill="#153085" d="M1198.354,284.575c0,67.284-53.31,121.831-119.07,121.831H203.259
			c-65.761,0-119.071-54.547-119.071-121.831l0,0c0-67.284,53.31-121.83,119.071-121.83h876.025
			C1145.045,162.745,1198.354,217.291,1198.354,284.575L1198.354,284.575z"/>
		<path fill="#153186" d="M1197.51,285.005c0,66.877-53.229,121.095-118.891,121.095H203.923
			c-65.662,0-118.89-54.218-118.89-121.095l0,0c0-66.877,53.229-121.094,118.89-121.094h874.696
			C1144.28,163.912,1197.51,218.128,1197.51,285.005L1197.51,285.005z"/>
		<path fill="#143286" d="M1196.665,285.436c0,66.471-53.148,120.359-118.71,120.359H204.587
			c-65.562,0-118.71-53.888-118.71-120.359l0,0c0-66.471,53.148-120.358,118.71-120.358h873.368
			C1143.517,165.078,1196.665,218.965,1196.665,285.436L1196.665,285.436z"/>
		<path fill="#143387" d="M1195.82,285.867c0,66.065-53.067,119.624-118.529,119.624h-872.04
			c-65.462,0-118.529-53.559-118.529-119.624l0,0c0-66.065,53.067-119.623,118.529-119.623h872.04
			C1142.753,166.244,1195.82,219.802,1195.82,285.867L1195.82,285.867z"/>
		<path fill="#143487" d="M1194.976,286.297c0,65.659-52.987,118.888-118.349,118.888H205.916
			c-65.362,0-118.349-53.229-118.349-118.888l0,0c0-65.659,52.986-118.887,118.349-118.887h870.711
			C1141.988,167.41,1194.976,220.639,1194.976,286.297L1194.976,286.297z"/>
		<path fill="#143588" d="M1194.131,286.728c0,65.252-52.906,118.153-118.168,118.153H206.58
			c-65.263,0-118.168-52.9-118.168-118.153l0,0c0-65.252,52.905-118.152,118.168-118.152h869.383
			C1141.225,168.576,1194.131,221.476,1194.131,286.728L1194.131,286.728z"/>
		<path fill="#143688" d="M1193.286,287.159c0,64.846-52.825,117.417-117.988,117.417H207.244
			c-65.163,0-117.987-52.571-117.987-117.417l0,0c0-64.846,52.825-117.417,117.987-117.417h868.054
			C1140.461,169.742,1193.286,222.313,1193.286,287.159L1193.286,287.159z"/>
		<path fill="#133789" d="M1192.44,287.589c0,64.44-52.744,116.681-117.807,116.681H207.909
			c-65.063,0-117.807-52.241-117.807-116.681l0,0c0-64.44,52.744-116.681,117.807-116.681h866.725
			C1139.696,170.909,1192.44,223.149,1192.44,287.589L1192.44,287.589z"/>
		<path fill="#13388A" d="M1191.596,288.02c0,64.035-52.663,115.946-117.626,115.946H208.573
			c-64.963,0-117.626-51.911-117.626-115.946l0,0c0-64.034,52.663-115.945,117.626-115.945h865.397
			C1138.933,172.075,1191.596,223.986,1191.596,288.02L1191.596,288.02z"/>
		<path fill="#13398A" d="M1190.751,288.451c0,63.628-52.582,115.21-117.445,115.21H209.237
			c-64.864,0-117.445-51.582-117.445-115.21l0,0c0-63.628,52.582-115.21,117.445-115.21h864.069
			C1138.169,173.241,1190.751,224.823,1190.751,288.451L1190.751,288.451z"/>
		<path fill="#133A8B" d="M1189.906,288.881c0,63.222-52.502,114.475-117.265,114.475h-862.74
			c-64.764,0-117.265-51.253-117.265-114.475l0,0c0-63.222,52.501-114.474,117.265-114.474h862.74
			C1137.404,174.407,1189.906,225.66,1189.906,288.881L1189.906,288.881z"/>
		<path fill="#133B8B" d="M1189.062,289.312c0,62.816-52.421,113.74-117.085,113.74H210.565
			c-64.664,0-117.084-50.924-117.084-113.74l0,0c0-62.815,52.42-113.739,117.084-113.739h861.411
			C1136.641,175.573,1189.062,226.497,1189.062,289.312L1189.062,289.312z"/>
		<path fill="#123C8C" d="M1188.217,289.743c0,62.41-52.34,113.003-116.904,113.003H211.23
			c-64.565,0-116.904-50.594-116.904-113.003l0,0c0-62.409,52.339-113.003,116.904-113.003h860.083
			C1135.877,176.739,1188.217,227.333,1188.217,289.743L1188.217,289.743z"/>
		<path fill="#123D8C" d="M1187.372,290.173c0,62.003-52.26,112.268-116.724,112.268H211.894
			c-64.465,0-116.724-50.265-116.724-112.268l0,0c0-62.003,52.259-112.268,116.724-112.268h858.754
			C1135.112,177.906,1187.372,228.17,1187.372,290.173L1187.372,290.173z"/>
		<path fill="#123E8D" d="M1186.527,290.604c0,61.597-52.179,111.533-116.543,111.533H212.558
			c-64.365,0-116.542-49.936-116.542-111.533l0,0c0-61.597,52.178-111.532,116.542-111.532h857.426
			C1134.349,179.072,1186.527,229.007,1186.527,290.604L1186.527,290.604z"/>
		<path fill="#123F8E" d="M1185.683,291.035c0,61.191-52.098,110.797-116.362,110.797H213.223
			c-64.266,0-116.362-49.606-116.362-110.797l0,0c0-61.19,52.097-110.797,116.362-110.797h856.098
			C1133.585,180.238,1185.683,229.844,1185.683,291.035L1185.683,291.035z"/>
		<path fill="#12408E" d="M1184.837,291.465c0,60.785-52.017,110.062-116.182,110.062H213.887
			c-64.166,0-116.182-49.277-116.182-110.062l0,0c0-60.784,52.016-110.061,116.182-110.061h854.769
			C1132.82,181.404,1184.837,230.681,1184.837,291.465L1184.837,291.465z"/>
		<path fill="#12418F" d="M1183.992,291.896c0,60.378-51.936,109.327-116.001,109.327h-853.44
			c-64.066,0-116.001-48.948-116.001-109.327l0,0c0-60.378,51.936-109.326,116.001-109.326h853.44
			C1132.057,182.57,1183.992,231.518,1183.992,291.896L1183.992,291.896z"/>
		<path fill="#11428F" d="M1183.147,292.327c0,59.972-51.854,108.59-115.82,108.59H215.215c-63.966,0-115.821-48.618-115.821-108.59
			l0,0c0-59.972,51.854-108.59,115.821-108.59h852.112C1131.293,183.736,1183.147,232.354,1183.147,292.327L1183.147,292.327z"/>
		<path fill="#114390" d="M1182.303,292.757c0,59.566-51.774,107.855-115.64,107.855H215.879
			c-63.866,0-115.64-48.289-115.64-107.855l0,0c0-59.566,51.773-107.854,115.64-107.854h850.784
			C1130.528,184.903,1182.303,233.191,1182.303,292.757L1182.303,292.757z"/>
		<path fill="#114490" d="M1181.458,293.188c0,59.16-51.693,107.12-115.459,107.12H216.544c-63.767,0-115.459-47.96-115.459-107.12
			l0,0c0-59.16,51.693-107.119,115.459-107.119h849.455C1129.765,186.069,1181.458,234.028,1181.458,293.188L1181.458,293.188z"/>
		<path fill="#114591" d="M1180.613,293.619c0,58.753-51.612,106.384-115.279,106.384H217.208
			c-63.667,0-115.279-47.631-115.279-106.384l0,0c0-58.753,51.612-106.384,115.279-106.384h848.126
			C1129.001,187.235,1180.613,234.865,1180.613,293.619L1180.613,293.619z"/>
		<path fill="#114692" d="M1179.769,294.049c0,58.347-51.532,105.649-115.099,105.649H217.873
			c-63.567,0-115.099-47.302-115.099-105.649l0,0c0-58.347,51.531-105.648,115.099-105.648h846.797
			C1128.236,188.401,1179.769,235.702,1179.769,294.049L1179.769,294.049z"/>
		<path fill="#104792" d="M1178.924,294.48c0,57.941-51.451,104.913-114.918,104.913H218.537
			c-63.467,0-114.917-46.972-114.917-104.913l0,0c0-57.941,51.45-104.913,114.917-104.913h845.469
			C1127.473,189.567,1178.924,236.539,1178.924,294.48L1178.924,294.48z"/>
		<path fill="#104893" d="M1178.079,294.911c0,57.535-51.37,104.177-114.737,104.177H219.201
			c-63.368,0-114.737-46.643-114.737-104.177l0,0c0-57.535,51.369-104.177,114.737-104.177h844.141
			C1126.709,190.733,1178.079,237.376,1178.079,294.911L1178.079,294.911z"/>
		<path fill="#104993" d="M1177.233,295.341c0,57.128-51.288,103.442-114.556,103.442H219.865
			c-63.268,0-114.557-46.313-114.557-103.442l0,0c0-57.128,51.289-103.442,114.557-103.442h842.813
			C1125.945,191.899,1177.233,238.213,1177.233,295.341L1177.233,295.341z"/>
		<path fill="#104A94" d="M1176.389,295.772c0,56.722-51.208,102.707-114.376,102.707H220.529
			c-63.168,0-114.376-45.984-114.376-102.707l0,0c0-56.722,51.208-102.706,114.376-102.706h841.483
			C1125.181,193.066,1176.389,239.05,1176.389,295.772L1176.389,295.772z"/>
		<path fill="#104B94" d="M1175.544,296.203c0,56.316-51.127,101.971-114.195,101.971H221.194
			c-63.069,0-114.196-45.655-114.196-101.971l0,0c0-56.316,51.127-101.971,114.196-101.971h840.155
			C1124.417,194.232,1175.544,239.887,1175.544,296.203L1175.544,296.203z"/>
		<path fill="#104C95" d="M1174.699,296.633c0,55.91-51.046,101.236-114.015,101.236H221.858
			c-62.969,0-114.015-45.326-114.015-101.236l0,0c0-55.91,51.046-101.235,114.015-101.235h838.827
			C1123.653,195.398,1174.699,240.723,1174.699,296.633L1174.699,296.633z"/>
		<path fill="#0F4D96" d="M1173.854,297.064c0,55.503-50.966,100.5-113.834,100.5H222.522c-62.869,0-113.834-44.996-113.834-100.5
			l0,0c0-55.504,50.965-100.5,113.834-100.5h837.498C1122.889,196.564,1173.854,241.56,1173.854,297.064L1173.854,297.064z"/>
		<path fill="#0F4E96" d="M1173.01,297.495c0,55.097-50.885,99.764-113.653,99.764h-836.17c-62.77,0-113.654-44.667-113.654-99.764
			l0,0c0-55.098,50.884-99.764,113.654-99.764h836.17C1122.125,197.73,1173.01,242.397,1173.01,297.495L1173.01,297.495z"/>
		<path fill="#0F4F97" d="M1172.165,297.925c0,54.691-50.804,99.029-113.474,99.029H223.851
			c-62.669,0-113.473-44.338-113.473-99.029l0,0c0-54.691,50.804-99.029,113.473-99.029h834.841
			C1121.361,198.896,1172.165,243.234,1172.165,297.925L1172.165,297.925z"/>
		<path fill="#0F5097" d="M1171.32,298.356c0,54.285-50.724,98.293-113.293,98.293H224.515c-62.57,0-113.292-44.009-113.292-98.293
			l0,0c0-54.285,50.723-98.293,113.292-98.293h833.512C1120.597,200.063,1171.32,244.071,1171.32,298.356L1171.32,298.356z"/>
		<path fill="#0F5198" d="M1170.476,298.787c0,53.878-50.643,97.558-113.112,97.558H225.179c-62.47,0-113.112-43.68-113.112-97.558
			l0,0c0-53.879,50.642-97.558,113.112-97.558h832.184C1119.833,201.229,1170.476,244.908,1170.476,298.787L1170.476,298.787z"/>
		<path fill="#0E5298" d="M1169.631,299.217c0,53.472-50.562,96.822-112.932,96.822H225.844c-62.371,0-112.932-43.35-112.932-96.822
			l0,0c0-53.473,50.561-96.822,112.932-96.822h830.855C1119.069,202.395,1169.631,245.745,1169.631,299.217L1169.631,299.217z"/>
		<path fill="#0E5399" d="M1168.785,299.648c0,53.066-50.48,96.086-112.75,96.086H226.508c-62.271,0-112.751-43.021-112.751-96.086
			l0,0c0-53.066,50.48-96.086,112.751-96.086h829.527C1118.305,203.562,1168.785,246.582,1168.785,299.648L1168.785,299.648z"/>
		<path fill="#0E549A" d="M1167.94,300.079c0,52.66-50.399,95.351-112.57,95.351H227.172c-62.171,0-112.57-42.691-112.57-95.351l0,0
			c0-52.66,50.399-95.351,112.57-95.351h828.198C1117.541,204.728,1167.94,247.418,1167.94,300.079L1167.94,300.079z"/>
		<path fill="#0E559A" d="M1167.096,300.509c0,52.253-50.318,94.616-112.39,94.616h-826.87c-62.071,0-112.39-42.362-112.39-94.616
			l0,0c0-52.254,50.318-94.616,112.39-94.616h826.87C1116.777,205.894,1167.096,248.255,1167.096,300.509L1167.096,300.509z"/>
		<path fill="#0E569B" d="M1166.251,300.94c0,51.848-50.238,93.88-112.209,93.88H228.5c-61.971,0-112.209-42.032-112.209-93.88l0,0
			c0-51.848,50.238-93.88,112.209-93.88h825.542C1116.013,207.06,1166.251,249.092,1166.251,300.94L1166.251,300.94z"/>
		<path fill="#0D579B" d="M1165.406,301.371c0,51.442-50.157,93.144-112.028,93.144H229.165
			c-61.872,0-112.029-41.702-112.029-93.144l0,0c0-51.442,50.157-93.145,112.029-93.145h824.213
			C1115.249,208.226,1165.406,249.929,1165.406,301.371L1165.406,301.371z"/>
		<path fill="#0D589C" d="M1164.562,301.801c0,51.036-50.076,92.409-111.848,92.409H229.829
			c-61.772,0-111.848-41.373-111.848-92.409l0,0c0-51.036,50.076-92.409,111.848-92.409h822.885
			C1114.485,209.392,1164.562,250.766,1164.562,301.801L1164.562,301.801z"/>
		<path fill="#0D599C" d="M1163.717,302.232c0,50.629-49.996,91.673-111.668,91.673H230.493
			c-61.672,0-111.667-41.044-111.667-91.673l0,0c0-50.629,49.995-91.673,111.667-91.673h821.556
			C1113.721,210.559,1163.717,251.603,1163.717,302.232L1163.717,302.232z"/>
		<path fill="#0D5A9D" d="M1162.872,302.663c0,50.223-49.915,90.938-111.487,90.938H231.158
			c-61.573,0-111.487-40.715-111.487-90.938l0,0c0-50.223,49.914-90.938,111.487-90.938h820.227
			C1112.957,211.725,1162.872,252.439,1162.872,302.663L1162.872,302.663z"/>
		<path fill="#0D5B9E" d="M1162.027,303.093c0,49.817-49.834,90.203-111.307,90.203H231.822
			c-61.473,0-111.306-40.386-111.306-90.203l0,0c0-49.817,49.833-90.203,111.306-90.203h818.899
			C1112.193,212.891,1162.027,253.276,1162.027,303.093L1162.027,303.093z"/>
		<path fill="#0D5C9E" d="M1161.182,303.524c0,49.411-49.753,89.467-111.125,89.467h-817.57
			c-61.374,0-111.126-40.057-111.126-89.467l0,0c0-49.411,49.752-89.467,111.126-89.467h817.57
			C1111.429,214.057,1161.182,254.113,1161.182,303.524L1161.182,303.524z"/>
		<path fill="#0C5D9F" d="M1160.337,303.955c0,49.004-49.672,88.731-110.944,88.731H233.15c-61.273,0-110.945-39.727-110.945-88.731
			l0,0c0-49.004,49.672-88.731,110.945-88.731h816.242C1110.665,215.223,1160.337,254.95,1160.337,303.955L1160.337,303.955z"/>
		<path fill="#0C5E9F" d="M1159.492,304.385c0,48.598-49.591,87.996-110.765,87.996H233.814
			c-61.173,0-110.764-39.397-110.764-87.996l0,0c0-48.598,49.591-87.996,110.764-87.996h814.913
			C1109.901,216.389,1159.492,255.787,1159.492,304.385L1159.492,304.385z"/>
		<path fill="#0C5FA0" d="M1158.647,304.816c0,48.192-49.511,87.26-110.584,87.26H234.479c-61.074,0-110.584-39.068-110.584-87.26
			l0,0c0-48.192,49.51-87.26,110.584-87.26h813.584C1109.137,217.556,1158.647,256.624,1158.647,304.816L1158.647,304.816z"/>
		<path fill="#0C60A0" d="M1157.803,305.247c0,47.786-49.43,86.525-110.403,86.525H235.143c-60.974,0-110.403-38.739-110.403-86.525
			l0,0c0-47.786,49.429-86.525,110.403-86.525h812.256C1108.373,218.722,1157.803,257.46,1157.803,305.247L1157.803,305.247z"/>
		<path fill="#0C61A1" d="M1156.958,305.677c0,47.379-49.349,85.79-110.223,85.79H235.808c-60.875,0-110.223-38.41-110.223-85.79
			l0,0c0-47.38,49.349-85.79,110.223-85.79h810.928C1107.609,219.888,1156.958,258.297,1156.958,305.677L1156.958,305.677z"/>
		<path fill="#0B62A2" d="M1156.113,306.108c0,46.973-49.269,85.053-110.042,85.053h-809.6c-60.775,0-110.042-38.08-110.042-85.053
			l0,0c0-46.974,49.268-85.054,110.042-85.054h809.6C1106.845,221.054,1156.113,259.134,1156.113,306.108L1156.113,306.108z"/>
		<path fill="#0B63A2" d="M1155.269,306.539c0,46.567-49.188,84.318-109.862,84.318H237.136
			c-60.675,0-109.861-37.751-109.861-84.318l0,0c0-46.567,49.187-84.318,109.861-84.318h808.271
			C1106.081,222.22,1155.269,259.971,1155.269,306.539L1155.269,306.539z"/>
		<path fill="#0B64A3" d="M1154.424,306.969c0,46.161-49.106,83.583-109.682,83.583H237.8c-60.575,0-109.681-37.422-109.681-83.583
			l0,0c0-46.161,49.106-83.583,109.681-83.583h806.942C1105.317,223.386,1154.424,260.808,1154.424,306.969L1154.424,306.969z"/>
		<path fill="#0B64A3" d="M1153.578,307.399c0,45.755-49.025,82.848-109.5,82.848H238.464c-60.476,0-109.5-37.093-109.5-82.848l0,0
			c0-45.754,49.025-82.847,109.5-82.847h805.614C1104.553,224.553,1153.578,261.645,1153.578,307.399L1153.578,307.399z"/>
		<path fill="#0B65A4" d="M1152.733,307.83c0,45.349-48.944,82.112-109.319,82.112H239.129c-60.376,0-109.32-36.764-109.32-82.112
			l0,0c0-45.348,48.944-82.111,109.32-82.111h804.285C1103.789,225.719,1152.733,262.482,1152.733,307.83L1152.733,307.83z"/>
		<path fill="#0B66A4" d="M1151.889,308.261c0,44.942-48.863,81.377-109.14,81.377H239.793c-60.276,0-109.139-36.435-109.139-81.377
			l0,0c0-44.942,48.863-81.376,109.139-81.376h802.956C1103.025,226.885,1151.889,263.319,1151.889,308.261L1151.889,308.261z"/>
		<path fill="#0A67A5" d="M1151.044,308.691c0,44.536-48.783,80.641-108.959,80.641H240.457
			c-60.176,0-108.958-36.104-108.958-80.641l0,0c0-44.536,48.782-80.64,108.958-80.64h801.628
			C1102.261,228.051,1151.044,264.156,1151.044,308.691L1151.044,308.691z"/>
		<path fill="#0A68A6" d="M1150.199,309.122c0,44.13-48.702,79.905-108.778,79.905H241.122c-60.077,0-108.778-35.775-108.778-79.905
			l0,0c0-44.129,48.702-79.905,108.778-79.905h800.299C1101.497,229.217,1150.199,264.993,1150.199,309.122L1150.199,309.122z"/>
		<path fill="#0A69A6" d="M1149.354,309.553c0,43.724-48.621,79.17-108.598,79.17H241.786c-59.977,0-108.598-35.446-108.598-79.17
			l0,0c0-43.724,48.621-79.169,108.598-79.169h798.971C1100.733,230.383,1149.354,265.829,1149.354,309.553L1149.354,309.553z"/>
		<path fill="#0A6AA7" d="M1148.51,309.983c0,43.317-48.541,78.435-108.417,78.435H242.45c-59.877,0-108.417-35.117-108.417-78.435
			l0,0c0-43.317,48.54-78.434,108.417-78.434h797.643C1099.969,231.55,1148.51,266.666,1148.51,309.983L1148.51,309.983z"/>
		<path fill="#0A6BA7" d="M1147.665,310.414c0,42.911-48.46,77.699-108.237,77.699H243.114c-59.777,0-108.236-34.788-108.236-77.699
			l0,0c0-42.911,48.459-77.698,108.236-77.698h796.313C1099.205,232.716,1147.665,267.503,1147.665,310.414L1147.665,310.414z"/>
		<path fill="#096CA8" d="M1146.82,310.845c0,42.505-48.379,76.963-108.057,76.963H243.778c-59.677,0-108.056-34.458-108.056-76.963
			l0,0c0-42.505,48.378-76.963,108.056-76.963h794.985C1098.441,233.882,1146.82,268.34,1146.82,310.845L1146.82,310.845z"/>
		<path fill="#096DA8" d="M1145.975,311.275c0,42.099-48.298,76.228-107.875,76.228H244.443
			c-59.578,0-107.875-34.129-107.875-76.228l0,0c0-42.099,48.297-76.227,107.875-76.227H1038.1
			C1097.677,235.048,1145.975,269.177,1145.975,311.275L1145.975,311.275z"/>
		<path fill="#096EA9" d="M1145.13,311.706c0,41.692-48.217,75.492-107.694,75.492H245.107c-59.478,0-107.695-33.8-107.695-75.492
			l0,0c0-41.692,48.217-75.492,107.695-75.492h792.329C1096.913,236.214,1145.13,270.014,1145.13,311.706L1145.13,311.706z"/>
		<path fill="#096FAA" d="M1144.285,312.137c0,41.286-48.136,74.757-107.514,74.757h-791c-59.378,0-107.514-33.471-107.514-74.757
			l0,0c0-41.286,48.136-74.756,107.514-74.756h791C1096.149,237.38,1144.285,270.851,1144.285,312.137L1144.285,312.137z"/>
		<path fill="#0970AA" d="M1143.44,312.567c0,40.88-48.056,74.021-107.334,74.021H246.436c-59.279,0-107.333-33.142-107.333-74.021
			l0,0c0-40.88,48.055-74.021,107.333-74.021h789.671C1095.385,238.547,1143.44,271.688,1143.44,312.567L1143.44,312.567z"/>
		<path fill="#0971AB" d="M1142.596,312.998c0,40.474-47.975,73.286-107.153,73.286H247.1c-59.179,0-107.153-32.813-107.153-73.286
			l0,0c0-40.474,47.974-73.285,107.153-73.285h788.343C1094.621,239.713,1142.596,272.524,1142.596,312.998L1142.596,312.998z"/>
		<path fill="#0872AB" d="M1141.751,313.429c0,40.067-47.894,72.55-106.973,72.55H247.764c-59.079,0-106.973-32.482-106.973-72.55
			l0,0c0-40.067,47.894-72.55,106.973-72.55h787.014C1093.857,240.879,1141.751,273.361,1141.751,313.429L1141.751,313.429z"/>
		<path fill="#0873AC" d="M1140.906,313.859c0,39.662-47.813,71.814-106.792,71.814H248.428
			c-58.979,0-106.792-32.152-106.792-71.814l0,0c0-39.662,47.813-71.814,106.792-71.814h785.686
			C1093.093,242.045,1140.906,274.198,1140.906,313.859L1140.906,313.859z"/>
		<path fill="#0874AC" d="M1140.062,314.29c0,39.256-47.732,71.079-106.611,71.079H249.093c-58.88,0-106.611-31.823-106.611-71.079
			l0,0c0-39.255,47.731-71.079,106.611-71.079h784.357C1092.329,243.211,1140.062,275.035,1140.062,314.29L1140.062,314.29z"/>
		<path fill="#0875AD" d="M1139.217,314.721c0,38.85-47.651,70.344-106.432,70.344H249.757c-58.78,0-106.431-31.494-106.431-70.344
			l0,0c0-38.849,47.65-70.343,106.431-70.343h783.028C1091.565,244.377,1139.217,275.872,1139.217,314.721L1139.217,314.721z"/>
		<path fill="#0876AE" d="M1138.371,315.151c0,38.443-47.57,69.608-106.25,69.608h-781.7c-58.68,0-106.25-31.165-106.25-69.608l0,0
			c0-38.443,47.57-69.607,106.25-69.607h781.7C1090.801,245.544,1138.371,276.708,1138.371,315.151L1138.371,315.151z"/>
		<path fill="#0777AE" d="M1137.526,315.582c0,38.037-47.489,68.872-106.069,68.872H251.085c-58.581,0-106.07-30.835-106.07-68.872
			l0,0c0-38.037,47.489-68.872,106.07-68.872h780.372C1090.037,246.71,1137.526,277.545,1137.526,315.582L1137.526,315.582z"/>
		<path fill="#0778AF" d="M1136.682,316.013c0,37.631-47.408,68.137-105.889,68.137H251.75c-58.481,0-105.889-30.506-105.889-68.137
			l0,0c0-37.63,47.408-68.137,105.889-68.137h779.043C1089.273,247.876,1136.682,278.382,1136.682,316.013L1136.682,316.013z"/>
		<path fill="#0779AF" d="M1135.837,316.443c0,37.225-47.328,67.401-105.708,67.401H252.414
			c-58.381,0-105.708-30.177-105.708-67.401l0,0c0-37.224,47.327-67.401,105.708-67.401h777.715
			C1088.509,249.042,1135.837,279.219,1135.837,316.443L1135.837,316.443z"/>
		<path fill="#077AB0" d="M1134.992,316.874c0,36.818-47.247,66.666-105.528,66.666H253.078
			c-58.281,0-105.528-29.848-105.528-66.666l0,0c0-36.818,47.247-66.666,105.528-66.666h776.386
			C1087.745,250.208,1134.992,280.056,1134.992,316.874L1134.992,316.874z"/>
		<path fill="#077BB0" d="M1134.147,317.305c0,36.412-47.166,65.931-105.348,65.931H253.742
			c-58.182,0-105.347-29.519-105.347-65.931l0,0c0-36.412,47.166-65.93,105.347-65.93H1028.8
			C1086.981,251.375,1134.147,280.893,1134.147,317.305L1134.147,317.305z"/>
		<path fill="#067CB1" d="M1133.303,317.735c0,36.006-47.086,65.194-105.167,65.194H254.407
			c-58.082,0-105.167-29.188-105.167-65.194l0,0c0-36.005,47.085-65.194,105.167-65.194h773.729
			C1086.217,252.541,1133.303,281.73,1133.303,317.735L1133.303,317.735z"/>
		<path fill="#067DB2" d="M1132.458,318.166c0,35.6-47.005,64.459-104.986,64.459H255.071c-57.982,0-104.986-28.859-104.986-64.459
			l0,0c0-35.6,47.004-64.459,104.986-64.459h772.401C1085.453,253.707,1132.458,282.566,1132.458,318.166L1132.458,318.166z"/>
		<path fill="#067EB2" d="M1131.613,318.597c0,35.193-46.924,63.724-104.806,63.724H255.735c-57.883,0-104.806-28.53-104.806-63.724
			l0,0c0-35.193,46.923-63.724,104.806-63.724h771.072C1084.689,254.873,1131.613,283.403,1131.613,318.597L1131.613,318.597z"/>
		<path fill="#067FB3" d="M1130.768,319.027c0,34.787-46.843,62.988-104.625,62.988H256.399
			c-57.783,0-104.625-28.201-104.625-62.988l0,0c0-34.787,46.842-62.988,104.625-62.988h769.743
			C1083.925,256.04,1130.768,284.24,1130.768,319.027L1130.768,319.027z"/>
		<path fill="#0680B3" d="M1129.923,319.458c0,34.381-46.762,62.253-104.444,62.253H257.063
			c-57.683,0-104.444-27.872-104.444-62.253l0,0c0-34.381,46.762-62.252,104.444-62.252h768.415
			C1083.161,257.206,1129.923,285.077,1129.923,319.458L1129.923,319.458z"/>
		<path fill="#0681B4" d="M1129.078,319.889c0,33.975-46.681,61.518-104.264,61.518H257.728
			c-57.583,0-104.264-27.543-104.264-61.518l0,0c0-33.975,46.681-61.517,104.264-61.517h767.086
			C1082.397,258.372,1129.078,285.914,1129.078,319.889L1129.078,319.889z"/>
		<path fill="#0582B4" d="M1128.233,320.319c0,33.568-46.6,60.781-104.083,60.781H258.392c-57.483,0-104.083-27.213-104.083-60.781
			l0,0c0-33.568,46.6-60.782,104.083-60.782h765.758C1081.634,259.538,1128.233,286.751,1128.233,320.319L1128.233,320.319z"/>
		<path fill="#0583B5" d="M1127.389,320.75c0,33.162-46.52,60.046-103.902,60.046h-764.43c-57.384,0-103.903-26.884-103.903-60.046
			l0,0c0-33.162,46.519-60.046,103.903-60.046h764.43C1080.869,260.704,1127.389,287.588,1127.389,320.75L1127.389,320.75z"/>
		<path fill="#0584B6" d="M1126.544,321.181c0,32.756-46.438,59.311-103.723,59.311H259.721
			c-57.284,0-103.722-26.555-103.722-59.311l0,0c0-32.756,46.438-59.311,103.722-59.311h763.101
			C1080.105,261.87,1126.544,288.425,1126.544,321.181L1126.544,321.181z"/>
		<path fill="#0585B6" d="M1125.699,321.611c0,32.35-46.357,58.575-103.542,58.575H260.385c-57.185,0-103.542-26.226-103.542-58.575
			l0,0c0-32.35,46.357-58.575,103.542-58.575h761.772C1079.342,263.036,1125.699,289.262,1125.699,321.611L1125.699,321.611z"/>
		<path fill="#0586B7" d="M1124.854,322.042c0,31.943-46.277,57.84-103.361,57.84H261.049c-57.084,0-103.361-25.896-103.361-57.84
			l0,0c0-31.943,46.276-57.839,103.361-57.839h760.444C1078.577,264.203,1124.854,290.099,1124.854,322.042L1124.854,322.042z"/>
		<path fill="#0487B7" d="M1124.01,322.473c0,31.537-46.196,57.104-103.181,57.104H261.713c-56.985,0-103.18-25.566-103.18-57.104
			l0,0c0-31.538,46.195-57.104,103.18-57.104h759.116C1077.813,265.369,1124.01,290.935,1124.01,322.473L1124.01,322.473z"/>
		<path fill="#0488B8" d="M1123.165,322.903c0,31.131-46.115,56.368-103,56.368H262.378c-56.885,0-103-25.237-103-56.368l0,0
			c0-31.131,46.115-56.369,103-56.369h757.787C1077.05,266.535,1123.165,291.772,1123.165,322.903L1123.165,322.903z"/>
		<path fill="#0489B8" d="M1122.319,323.334c0,30.725-46.034,55.633-102.819,55.633H263.042
			c-56.785,0-102.819-24.908-102.819-55.633l0,0c0-30.725,46.034-55.633,102.819-55.633H1019.5
			C1076.285,267.701,1122.319,292.609,1122.319,323.334L1122.319,323.334z"/>
		<path fill="#048AB9" d="M1121.475,323.765c0,30.318-45.953,54.897-102.639,54.897H263.707
			c-56.686,0-102.639-24.579-102.639-54.897l0,0c0-30.319,45.953-54.897,102.639-54.897h755.129
			C1075.521,268.867,1121.475,293.446,1121.475,323.765L1121.475,323.765z"/>
		<path fill="#048BBA" d="M1120.63,324.195c0,29.912-45.872,54.162-102.458,54.162H264.371c-56.586,0-102.458-24.25-102.458-54.162
			l0,0c0-29.913,45.872-54.162,102.458-54.162h753.801C1074.758,270.033,1120.63,294.283,1120.63,324.195L1120.63,324.195z"/>
		<path fill="#048CBA" d="M1119.785,324.626c0,29.506-45.792,53.427-102.277,53.427H265.035
			c-56.486,0-102.277-23.921-102.277-53.427l0,0c0-29.506,45.792-53.426,102.277-53.426h752.473
			C1073.993,271.2,1119.785,295.12,1119.785,324.626L1119.785,324.626z"/>
		<path fill="#038DBB" d="M1118.94,325.057c0,29.1-45.711,52.69-102.097,52.69H265.699c-56.387,0-102.097-23.591-102.097-52.69l0,0
			c0-29.1,45.71-52.691,102.097-52.691h751.145C1073.229,272.366,1118.94,295.957,1118.94,325.057L1118.94,325.057z"/>
		<path fill="#038EBB" d="M1118.096,325.487c0,28.693-45.63,51.955-101.917,51.955H266.363c-56.287,0-101.917-23.262-101.917-51.955
			l0,0c0-28.694,45.63-51.956,101.917-51.956h749.815C1072.466,273.532,1118.096,296.793,1118.096,325.487L1118.096,325.487z"/>
		<path fill="#038FBC" d="M1117.251,325.918c0,28.287-45.55,51.22-101.736,51.22H267.028c-56.187,0-101.736-22.933-101.736-51.22
			l0,0c0-28.288,45.549-51.22,101.736-51.22h748.487C1071.701,274.698,1117.251,297.63,1117.251,325.918L1117.251,325.918z"/>
		<path fill="#0390BC" d="M1116.406,326.349c0,27.881-45.469,50.484-101.556,50.484H267.692
			c-56.087,0-101.555-22.604-101.555-50.484l0,0c0-27.881,45.468-50.484,101.555-50.484h747.159
			C1070.938,275.864,1116.406,298.467,1116.406,326.349L1116.406,326.349z"/>
		<path fill="#0391BD" d="M1115.562,326.779c0,27.476-45.388,49.749-101.375,49.749H268.356
			c-55.987,0-101.375-22.273-101.375-49.749l0,0c0-27.476,45.387-49.749,101.375-49.749h745.831
			C1070.174,277.03,1115.562,299.304,1115.562,326.779L1115.562,326.779z"/>
		<path fill="#0292BE" d="M1114.716,327.21c0,27.069-45.307,49.013-101.193,49.013H269.021c-55.888,0-101.194-21.943-101.194-49.013
			l0,0c0-27.069,45.306-49.013,101.194-49.013h744.502C1069.409,278.197,1114.716,300.141,1114.716,327.21L1114.716,327.21z"/>
		<path fill="#0293BE" d="M1113.871,327.641c0,26.663-45.226,48.277-101.014,48.277H269.685
			c-55.788,0-101.014-21.614-101.014-48.277l0,0c0-26.663,45.226-48.278,101.014-48.278h743.173
			C1068.646,279.363,1113.871,300.978,1113.871,327.641L1113.871,327.641z"/>
		<path fill="#0294BF" d="M1113.026,328.071c0,26.257-45.145,47.542-100.833,47.542H270.349
			c-55.688,0-100.833-21.285-100.833-47.542l0,0c0-26.257,45.145-47.542,100.833-47.542h741.844
			C1067.882,280.529,1113.026,301.814,1113.026,328.071L1113.026,328.071z"/>
		<path fill="#0295BF" d="M1112.182,328.502c0,25.851-45.064,46.807-100.652,46.807H271.013
			c-55.589,0-100.652-20.956-100.652-46.807l0,0c0-25.851,45.063-46.807,100.652-46.807h740.516
			C1067.117,281.695,1112.182,302.651,1112.182,328.502L1112.182,328.502z"/>
		<path fill="#0296C0" d="M1111.337,328.933c0,25.444-44.983,46.071-100.472,46.071H271.677
			c-55.489,0-100.472-20.627-100.472-46.071l0,0c0-25.444,44.983-46.071,100.472-46.071h739.188
			C1066.354,282.861,1111.337,303.488,1111.337,328.933L1111.337,328.933z"/>
		<path fill="#0197C0" d="M1110.492,329.363c0,25.038-44.902,45.335-100.291,45.335H272.342
			c-55.389,0-100.292-20.297-100.292-45.335l0,0c0-25.038,44.902-45.336,100.292-45.336h737.859
			C1065.59,284.027,1110.492,304.325,1110.492,329.363L1110.492,329.363z"/>
		<path fill="#0198C1" d="M1109.647,329.794c0,24.632-44.822,44.6-100.111,44.6h-736.53c-55.29,0-100.111-19.968-100.111-44.6l0,0
			c0-24.632,44.821-44.6,100.111-44.6h736.53C1064.825,285.194,1109.647,305.162,1109.647,329.794L1109.647,329.794z"/>
		<path fill="#0199C2" d="M1108.803,330.225c0,24.226-44.741,43.864-99.931,43.864H273.67c-55.19,0-99.93-19.639-99.93-43.864l0,0
			c0-24.226,44.74-43.865,99.93-43.865h735.202C1064.062,286.36,1108.803,305.999,1108.803,330.225L1108.803,330.225z"/>
		<path fill="#019AC2" d="M1107.958,330.655c0,23.819-44.66,43.129-99.75,43.129H274.334c-55.09,0-99.75-19.31-99.75-43.129l0,0
			c0-23.819,44.66-43.129,99.75-43.129h733.874C1063.298,287.526,1107.958,306.836,1107.958,330.655L1107.958,330.655z"/>
		<path fill="#019BC3" d="M1107.112,331.086c0,23.413-44.579,42.394-99.568,42.394H274.999c-54.99,0-99.569-18.98-99.569-42.394l0,0
			c0-23.414,44.579-42.394,99.569-42.394h732.545C1062.533,288.692,1107.112,307.672,1107.112,331.086L1107.112,331.086z"/>
		<path fill="#019CC3" d="M1106.268,331.517c0,23.007-44.498,41.658-99.388,41.658H275.663c-54.891,0-99.389-18.651-99.389-41.658
			l0,0c0-23.007,44.498-41.658,99.389-41.658h731.217C1061.77,289.858,1106.268,308.509,1106.268,331.517L1106.268,331.517z"/>
		<path fill="#009DC4" d="M1105.423,331.947c0,22.601-44.417,40.922-99.208,40.922H276.327c-54.791,0-99.208-18.321-99.208-40.922
			l0,0c0-22.601,44.417-40.923,99.208-40.923h729.888C1061.006,291.024,1105.423,309.346,1105.423,331.947L1105.423,331.947z"/>
		<path fill="#009EC4" d="M1104.578,332.378c0,22.194-44.337,40.187-99.027,40.187H276.992c-54.691,0-99.027-17.992-99.027-40.187
			l0,0c0-22.195,44.336-40.187,99.027-40.187h728.559C1060.241,292.191,1104.578,310.183,1104.578,332.378L1104.578,332.378z"/>
		<path fill="#009FC5" d="M1103.733,332.809c0,21.788-44.256,39.451-98.847,39.451H277.656c-54.591,0-98.847-17.663-98.847-39.451
			l0,0c0-21.789,44.255-39.452,98.847-39.452h727.231C1059.478,293.357,1103.733,311.02,1103.733,332.809L1103.733,332.809z"/>
	</g>
	<linearGradient id="SVGID_1_" gradientUnits="userSpaceOnUse" x1="641.2715" y1="285.4961" x2="641.2715" y2="168.7202">
		<stop  offset="0" style="stop-color:#FFFFFF;stop-opacity:0"/>
		<stop  offset="1" style="stop-color:#FFFFFF"/>
	</linearGradient>
	<path opacity="0.85" fill="url(#SVGID_1_)" d="M1141.952,227.107c0,32.246-47.911,58.389-107.016,58.389h-787.33
		c-59.103,0-107.016-26.143-107.016-58.389l0,0c0-32.244,47.913-58.387,107.016-58.387h787.33
		C1094.041,168.72,1141.952,194.863,1141.952,227.107L1141.952,227.107z"/>
</g>
<g>
	<linearGradient id="SVGID_2_" gradientUnits="userSpaceOnUse" x1="641.2715" y1="405.9082" x2="641.2715" y2="509.0528">
		<stop  offset="0.103" style="stop-color:#162981"/>
		<stop  offset="0.7455" style="stop-color:#009FC5"/>
	</linearGradient>
	<path fill="url(#SVGID_2_)" d="M1083.934,408.539H198.608c-55.471,0-102.167,39.474-116.095,93.164
		c21.457,5.979,47.71,9.499,76.065,9.499h965.385c28.354,0,54.608-3.52,76.065-9.5
		C1186.102,448.013,1139.405,408.539,1083.934,408.539z"/>
</g>
<linearGradient id="SVGID_3_" gradientUnits="userSpaceOnUse" x1="641.2715" y1="412.3555" x2="641.2715" y2="513.3514">
	<stop  offset="0" style="stop-color:#FFFFFF;stop-opacity:0.4"/>
	<stop  offset="1" style="stop-color:#FFFFFF"/>
</linearGradient>
<path fill="url(#SVGID_3_)" d="M1255.181,464.169c0,28.35-58.748,51.331-131.217,51.331H158.579
	c-72.469,0-131.217-22.981-131.217-51.331v-4.297c0-28.352,58.749-51.333,131.217-51.333h965.385
	c72.469,0,131.217,22.981,131.217,51.333V464.169z"/>
<g>
	<path fill="#FFFFFF" d="M290.487,319.973c8.337,4.365,21.667,8.743,35.218,8.743c14.583,0,22.293-6.038,22.293-15.42
		c0-8.533-6.677-13.748-23.548-19.576c-23.327-8.337-38.746-21.248-38.746-41.881c0-23.954,20.203-42.079,53.121-42.079
		c16.047,0,27.507,3.123,35.832,7.083l-7.083,25.417c-5.411-2.705-15.627-6.665-29.167-6.665c-13.747,0-20.412,6.456-20.412,13.538
		c0,8.965,7.71,12.924,26.044,20.007c24.789,9.161,36.25,22.084,36.25,42.079c0,23.547-17.916,43.542-56.466,43.542
		c-16.034,0-31.872-4.378-39.791-8.755L290.487,319.973z"/>
	<path fill="#FFFFFF" d="M433.617,212.047v80.628c0,24.371,9.369,36.663,25.417,36.663c16.661,0,25.835-11.664,25.835-36.663
		v-80.628h31.664v78.759c0,43.321-21.876,63.954-58.544,63.954c-35.414,0-56.035-19.797-56.035-64.372v-78.341H433.617z"/>
	<path fill="#FFFFFF" d="M544.024,214.137c8.337-1.672,25.012-3.123,41.046-3.123c19.379,0,31.258,1.868,41.464,7.906
		c9.788,5.214,16.674,14.792,16.674,27.716c0,12.284-7.304,23.744-22.933,29.794v0.418c16.047,4.156,27.926,16.452,27.926,34.578
		c0,12.911-5.829,22.92-14.584,29.781c-10.206,8.142-27.298,12.716-55.211,12.716c-15.628,0-27.298-1.033-34.381-2.092V214.137z
		 M575.492,267.676h10.415c16.871,0,25.625-6.874,25.625-17.289c0-10.624-8.128-16.256-22.502-16.256
		c-7.083,0-11.043,0.419-13.539,1.046V267.676z M575.492,329.97c3.123,0.621,6.874,0.621,12.284,0.621
		c14.375,0,27.089-5.625,27.089-20.418c0-14.166-12.714-19.785-28.54-19.785h-10.833V329.97z"/>
	<path fill="#FFFFFF" d="M788.599,298.713c-0.615-16.871-1.229-37.074-1.229-57.708h-0.418c-4.6,17.916-10.428,37.922-15.839,54.375
		l-17.092,54.806h-24.79l-15.001-54.179c-4.573-16.661-9.174-36.459-12.714-55.001h-0.394c-0.641,18.961-1.477,40.627-2.313,58.125
		l-2.705,53.342H666.74l8.952-140.426h42.3l13.748,47.083c4.574,16.047,8.755,33.545,11.878,50.01h0.836
		c3.738-16.256,8.534-34.59,13.329-50.416l14.78-46.678h41.66l7.501,140.426h-30.813L788.599,298.713z"/>
	<path fill="#FFFFFF" d="M877.991,212.047v140.426h-31.675V212.047H877.991z"/>
	<path fill="#FFFFFF" d="M932.783,238.718H894.86v-26.671h107.914v26.671h-38.341v113.754h-31.65V238.718z"/>
</g>
</svg>
